<svg width="72" height="72" viewBox="0 0 72 72" fill="none" xmlns="http://www.w3.org/2000/svg">
<path d="M0 36C0 16.1178 16.1178 0 36 0C55.8823 0 72 16.1178 72 36C72 55.8823 55.8823 72 36 72C16.1178 72 0 55.8823 0 36Z" fill="#F0F3FF"/>
<g clip-path="url(#clip0_8180_82931)">
<path d="M22.2378 31.5682C21.5937 31.5682 21.0715 31.046 21.0715 30.4019V28.0693C21.0715 24.2107 24.2107 21.0715 28.0693 21.0715H30.4019C31.046 21.0715 31.5682 21.5937 31.5682 22.2378C31.5682 22.882 31.046 23.4041 30.4019 23.4041H28.0693C25.4969 23.4041 23.4041 25.4969 23.4041 28.0693V30.4019C23.4041 31.046 22.882 31.5682 22.2378 31.5682ZM50.9287 30.4019V28.0693C50.9287 24.2107 47.7895 21.0715 43.9309 21.0715H41.5983C40.0546 21.1284 40.0516 23.3462 41.5983 23.4041H43.9309C46.5033 23.4041 48.5961 25.4969 48.5961 28.0693V30.4019C48.6511 31.9439 50.8711 31.9497 50.9287 30.4019ZM50.9287 43.9309V41.5983C50.9287 40.9542 50.4065 40.432 49.7624 40.432C49.1182 40.432 48.5961 40.9542 48.5961 41.5983V43.9309C48.5961 46.5033 46.5033 48.5961 43.9309 48.5961H41.5983C40.0563 48.6511 40.0505 50.8711 41.5983 50.9287H43.9309C47.7895 50.9287 50.9287 47.7895 50.9287 43.9309ZM31.5682 49.7624C31.5682 49.1182 31.046 48.5961 30.4019 48.5961H28.0693C25.4969 48.5961 23.4041 46.5033 23.4041 43.9309V41.5983C23.4041 40.9542 22.882 40.432 22.2378 40.432C21.5937 40.432 21.0715 40.9542 21.0715 41.5983V43.9309C21.0715 47.7895 24.2107 50.9287 28.0693 50.9287H30.4019C31.046 50.9287 31.5682 50.4065 31.5682 49.7624Z" fill="url(#paint0_linear_8180_82931)"/>
<path d="M35.9999 42.6479C32.3021 42.6479 29.2937 39.6395 29.2937 35.9417C29.6309 27.0573 42.3703 27.0597 42.7061 35.9418C42.7061 39.6395 39.6977 42.6479 35.9999 42.6479ZM35.9999 31.5681C33.5883 31.5681 31.6263 33.5301 31.6263 35.9417C31.8461 41.7359 40.1545 41.7344 40.3735 35.9417C40.3735 33.5301 38.4115 31.5681 35.9999 31.5681Z" fill="url(#paint1_linear_8180_82931)"/>
</g>
<defs>
<linearGradient id="paint0_linear_8180_82931" x1="36.0001" y1="10.7364" x2="18.1655" y2="48.5448" gradientUnits="userSpaceOnUse">
<stop stop-color="#1D1DED"/>
<stop offset="1" stop-color="#1D9AED"/>
</linearGradient>
<linearGradient id="paint1_linear_8180_82931" x1="35.9999" y1="24.6517" x2="28.031" y2="41.6006" gradientUnits="userSpaceOnUse">
<stop stop-color="#1D1DED"/>
<stop offset="1" stop-color="#1D9AED"/>
</linearGradient>
<clipPath id="clip0_8180_82931">
<rect width="29.8571" height="29.8571" fill="white" transform="translate(21.0715 21.0715)"/>
</clipPath>
</defs>
</svg>
