<svg width="72" height="72" viewBox="0 0 72 72" fill="none" xmlns="http://www.w3.org/2000/svg">
<path d="M0 36C0 16.1178 16.1178 0 36 0C55.8823 0 72 16.1178 72 36C72 55.8823 55.8823 72 36 72C16.1178 72 0 55.8823 0 36Z" fill="#F0F3FF"/>
<g clip-path="url(#clip0_8180_82932)">
<path d="M47.5464 32.8512L49.0794 34.3359C49.99 35.2437 49.99 36.7156 49.0794 37.6233L47.5464 39.1492" stroke="url(#paint0_linear_8180_82932)" stroke-width="2.33258" stroke-miterlimit="10" stroke-linecap="round" stroke-linejoin="round"/>
<path d="M24.3954 32.8512L22.9207 34.3359C22.0101 35.2437 22.0101 36.7156 22.9207 37.6233L24.3954 39.1492" stroke="url(#paint1_linear_8180_82932)" stroke-width="2.33258" stroke-miterlimit="10" stroke-linecap="round" stroke-linejoin="round"/>
<path d="M32.8511 24.4539L34.3358 22.9208C35.2436 22.0102 36.7154 22.0102 37.6232 22.9208L39.0907 24.4539" stroke="url(#paint2_linear_8180_82932)" stroke-width="2.33258" stroke-miterlimit="10" stroke-linecap="round" stroke-linejoin="round"/>
<path d="M32.8511 47.5465L34.3358 49.0796C35.2436 49.9901 36.7154 49.9901 37.6232 49.0796L39.0907 47.5465" stroke="url(#paint3_linear_8180_82932)" stroke-width="2.33258" stroke-miterlimit="10" stroke-linecap="round" stroke-linejoin="round"/>
<path d="M42.5312 25.1535H44.522C45.8078 25.1516 46.8485 26.1923 46.8465 27.4781L46.8415 29.5854" stroke="url(#paint4_linear_8180_82932)" stroke-width="2.33258" stroke-miterlimit="10" stroke-linecap="round" stroke-linejoin="round"/>
<path d="M29.4688 25.1535H27.4781C26.1923 25.1516 25.1516 26.1923 25.1536 27.4781L25.1586 29.5854" stroke="url(#paint5_linear_8180_82932)" stroke-width="2.33258" stroke-miterlimit="10" stroke-linecap="round" stroke-linejoin="round"/>
<path d="M42.4729 46.8467H44.522C45.8077 46.8486 46.8485 45.8079 46.8465 44.5221L46.8414 42.4148" stroke="url(#paint6_linear_8180_82932)" stroke-width="2.33258" stroke-miterlimit="10" stroke-linecap="round" stroke-linejoin="round"/>
<path d="M29.5853 46.7883H27.5362C26.2504 46.7903 25.2097 45.7496 25.2117 44.4638L25.2167 42.2981" stroke="url(#paint7_linear_8180_82932)" stroke-width="2.33258" stroke-miterlimit="10" stroke-linecap="round" stroke-linejoin="round"/>
<path d="M30.5768 30.5769L29.1189 29.1774" stroke="url(#paint8_linear_8180_82932)" stroke-width="2.33258" stroke-miterlimit="10" stroke-linecap="round" stroke-linejoin="round"/>
<path d="M41.4233 41.4234L42.8812 42.823" stroke="url(#paint9_linear_8180_82932)" stroke-width="2.33258" stroke-miterlimit="10" stroke-linecap="round" stroke-linejoin="round"/>
<path d="M41.4233 30.5769L42.8812 29.1774" stroke="url(#paint10_linear_8180_82932)" stroke-width="2.33258" stroke-miterlimit="10" stroke-linecap="round" stroke-linejoin="round"/>
<path d="M30.5768 41.4234L29.1772 42.7646" stroke="url(#paint11_linear_8180_82932)" stroke-width="2.33258" stroke-miterlimit="10" stroke-linecap="round" stroke-linejoin="round"/>
<path d="M36 28.4775V26.903" stroke="url(#paint12_linear_8180_82932)" stroke-width="2.33258" stroke-miterlimit="10" stroke-linecap="round" stroke-linejoin="round"/>
<path d="M36 45.3306V43.7561" stroke="url(#paint13_linear_8180_82932)" stroke-width="2.33258" stroke-miterlimit="10" stroke-linecap="round" stroke-linejoin="round"/>
<path d="M28.3609 36.1167H26.7864" stroke="url(#paint14_linear_8180_82932)" stroke-width="2.33258" stroke-miterlimit="10" stroke-linecap="round" stroke-linejoin="round"/>
<path d="M45.2137 36.1167H43.6392" stroke="url(#paint15_linear_8180_82932)" stroke-width="2.33258" stroke-miterlimit="10" stroke-linecap="round" stroke-linejoin="round"/>
<path d="M32.7927 36.0002C32.7927 37.7716 34.2287 39.2075 36 39.2075C37.7713 39.2075 39.2073 37.7716 39.2073 36.0002C39.2073 34.2289 37.7713 32.7929 36 32.7929C34.2287 32.7929 32.7927 34.2289 32.7927 36.0002Z" stroke="url(#paint16_linear_8180_82932)" stroke-width="2.33258" stroke-miterlimit="10" stroke-linecap="round" stroke-linejoin="round"/>
</g>
<defs>
<linearGradient id="paint0_linear_8180_82932" x1="48.6544" y1="41.3292" x2="43.9817" y2="37.8438" gradientUnits="userSpaceOnUse">
<stop stop-color="#1D1DED"/>
<stop offset="1" stop-color="#1D9AED"/>
</linearGradient>
<linearGradient id="paint1_linear_8180_82932" x1="23.3166" y1="41.3292" x2="18.6809" y2="37.9624" gradientUnits="userSpaceOnUse">
<stop stop-color="#1D1DED"/>
<stop offset="1" stop-color="#1D9AED"/>
</linearGradient>
<linearGradient id="paint2_linear_8180_82932" x1="35.9709" y1="25.2209" x2="35.4119" y2="21.8841" gradientUnits="userSpaceOnUse">
<stop stop-color="#1D1DED"/>
<stop offset="1" stop-color="#1D9AED"/>
</linearGradient>
<linearGradient id="paint3_linear_8180_82932" x1="35.9709" y1="50.5295" x2="35.4119" y2="47.1927" gradientUnits="userSpaceOnUse">
<stop stop-color="#1D1DED"/>
<stop offset="1" stop-color="#1D9AED"/>
</linearGradient>
<linearGradient id="paint4_linear_8180_82932" x1="44.6889" y1="31.1196" x2="41.9969" y2="25.5628" gradientUnits="userSpaceOnUse">
<stop stop-color="#1D1DED"/>
<stop offset="1" stop-color="#1D9AED"/>
</linearGradient>
<linearGradient id="paint5_linear_8180_82932" x1="27.3112" y1="31.1196" x2="24.6192" y2="25.5628" gradientUnits="userSpaceOnUse">
<stop stop-color="#1D1DED"/>
<stop offset="1" stop-color="#1D9AED"/>
</linearGradient>
<linearGradient id="paint6_linear_8180_82932" x1="44.6597" y1="48.3808" x2="41.9901" y2="42.7959" gradientUnits="userSpaceOnUse">
<stop stop-color="#1D1DED"/>
<stop offset="1" stop-color="#1D9AED"/>
</linearGradient>
<linearGradient id="paint7_linear_8180_82932" x1="27.3985" y1="48.3426" x2="24.6716" y2="42.712" gradientUnits="userSpaceOnUse">
<stop stop-color="#1D1DED"/>
<stop offset="1" stop-color="#1D9AED"/>
</linearGradient>
<linearGradient id="paint8_linear_8180_82932" x1="29.8478" y1="31.0614" x2="29.0337" y2="29.2634" gradientUnits="userSpaceOnUse">
<stop stop-color="#1D1DED"/>
<stop offset="1" stop-color="#1D9AED"/>
</linearGradient>
<linearGradient id="paint9_linear_8180_82932" x1="42.1523" y1="43.3075" x2="41.3381" y2="41.5095" gradientUnits="userSpaceOnUse">
<stop stop-color="#1D1DED"/>
<stop offset="1" stop-color="#1D9AED"/>
</linearGradient>
<linearGradient id="paint10_linear_8180_82932" x1="42.1523" y1="31.0614" x2="41.3381" y2="29.2634" gradientUnits="userSpaceOnUse">
<stop stop-color="#1D1DED"/>
<stop offset="1" stop-color="#1D9AED"/>
</linearGradient>
<linearGradient id="paint11_linear_8180_82932" x1="29.877" y1="43.2289" x2="29.0977" y2="41.5049" gradientUnits="userSpaceOnUse">
<stop stop-color="#1D1DED"/>
<stop offset="1" stop-color="#1D9AED"/>
</linearGradient>
<linearGradient id="paint12_linear_8180_82932" x1="36.5" y1="29.0226" x2="35.3333" y2="27.4516" gradientUnits="userSpaceOnUse">
<stop stop-color="#1D1DED"/>
<stop offset="1" stop-color="#1D9AED"/>
</linearGradient>
<linearGradient id="paint13_linear_8180_82932" x1="36.5" y1="45.8756" x2="35.3333" y2="44.3047" gradientUnits="userSpaceOnUse">
<stop stop-color="#1D1DED"/>
<stop offset="1" stop-color="#1D9AED"/>
</linearGradient>
<linearGradient id="paint14_linear_8180_82932" x1="27.5736" y1="36.4629" x2="27.148" y2="35.0423" gradientUnits="userSpaceOnUse">
<stop stop-color="#1D1DED"/>
<stop offset="1" stop-color="#1D9AED"/>
</linearGradient>
<linearGradient id="paint15_linear_8180_82932" x1="44.4264" y1="36.4629" x2="44.0008" y2="35.0423" gradientUnits="userSpaceOnUse">
<stop stop-color="#1D1DED"/>
<stop offset="1" stop-color="#1D9AED"/>
</linearGradient>
<linearGradient id="paint16_linear_8180_82932" x1="36" y1="41.428" x2="32.1684" y2="33.3051" gradientUnits="userSpaceOnUse">
<stop stop-color="#1D1DED"/>
<stop offset="1" stop-color="#1D9AED"/>
</linearGradient>
<clipPath id="clip0_8180_82932">
<rect width="29.8571" height="29.8571" fill="white" transform="translate(21.0715 21.0715)"/>
</clipPath>
</defs>
</svg>
