<svg width="58" height="58" viewBox="0 0 58 58" fill="none" xmlns="http://www.w3.org/2000/svg">
<path d="M0 29C0 12.9837 12.9837 0 29 0C45.0163 0 58 12.9837 58 29C58 45.0163 45.0163 58 29 58C12.9837 58 0 45.0163 0 29Z" fill="#02131F"/>
<g clip-path="url(#clip0_8394_47202)">
<path d="M28.8204 43.7488H38.7479C39.9228 43.7488 40.8977 42.9489 41.1727 41.849L43.6725 34.3496C43.7225 34.1746 43.7475 33.9497 43.7475 33.7497C43.7475 32.3748 42.6226 31.2499 41.2477 31.2499H38.8657C37.6436 31.2499 36.6008 30.3664 36.3999 29.161L35.8462 25.8393C35.6453 24.6339 34.6025 23.7505 33.3804 23.7505H31.7484V28.7501C31.7484 30.1307 30.6292 31.2499 29.2486 31.2499H28.8204M21.7493 43.7488H16.7497C15.3691 43.7488 14.2499 42.6296 14.2499 41.2491V33.7497C14.2499 32.3691 15.3691 31.2499 16.7497 31.2499H21.7493C23.1298 31.2499 24.2491 32.3691 24.2491 33.7497V41.2491C24.2491 42.6297 23.1298 43.7488 21.7493 43.7488Z" stroke="white" stroke-width="2.49979" stroke-miterlimit="10" stroke-linecap="round" stroke-linejoin="round"/>
<path d="M31.3735 16.751L28.9961 15.9785M31.3735 16.751L29.9042 18.7734M31.3735 16.751L32.8428 18.7734M31.3735 16.751L33.7509 15.9785M31.3735 16.751V14.2512M21.3743 16.751L18.9969 15.9785M21.3743 16.751L19.905 18.7734M21.3743 16.751L22.8436 18.7734M21.3743 16.751L23.7517 15.9785M21.3743 16.751V14.2512M41.3727 16.751L38.9952 15.9785M41.3727 16.751L39.9034 18.7734M41.3727 16.751L42.842 18.7734M41.3727 16.751L43.7501 15.9785M41.3727 16.751V14.2512" stroke="white" stroke-width="2.49979" stroke-miterlimit="10" stroke-linecap="round" stroke-linejoin="round"/>
</g>
<defs>
<clipPath id="clip0_8394_47202">
<rect width="32" height="32" fill="white" transform="translate(13 13)"/>
</clipPath>
</defs>
</svg>
