<svg width="58" height="58" viewBox="0 0 58 58" fill="none" xmlns="http://www.w3.org/2000/svg">
<path d="M0 29C0 12.9837 12.9837 0 29 0C45.0163 0 58 12.9837 58 29C58 45.0163 45.0163 58 29 58C12.9837 58 0 45.0163 0 29Z" fill="#02131F"/>
<path d="M22.7375 45C22.6437 45 22.5437 44.9937 22.4437 44.9812C21.5312 44.8625 20.7687 44.2187 20.5125 43.3375L20.0812 41.8937L18.6062 42.2125C17.7062 42.4125 16.775 42.0562 16.2312 41.3125C15.9659 40.9472 15.8133 40.5124 15.7922 40.0615C15.7711 39.6106 15.8824 39.1633 16.1125 38.775L18.275 35.1C18.625 34.5062 19.3937 34.3062 19.9875 34.6562C20.5812 35.0062 20.7812 35.775 20.4312 36.3687L18.4875 39.675L20.6812 39.2062C21.3187 39.0687 21.9562 39.4437 22.1437 40.0687L22.7875 42.225L25.1625 38.2812C25.5187 37.6875 26.2875 37.5 26.8812 37.8562C27.475 38.2125 27.6624 38.9812 27.3062 39.575L24.7125 43.875C24.3062 44.575 23.5437 45 22.7375 45ZM35.2625 45C34.45 45 33.6937 44.575 33.2687 43.8625L30.7374 39.5562C30.3874 38.9625 30.5875 38.1937 31.1812 37.8437C31.775 37.4937 32.5437 37.6937 32.8937 38.2875L35.2062 42.2125L35.85 40.0625C36.0375 39.4375 36.6749 39.0625 37.3125 39.2L39.5062 39.6687L37.5062 36.3062C37.15 35.7125 37.35 34.9437 37.9437 34.5875C38.5375 34.2312 39.3062 34.4312 39.6625 35.025L41.8875 38.7625C42.3625 39.5625 42.3125 40.5562 41.7687 41.3062C41.2249 42.05 40.2937 42.4062 39.3937 42.2062L37.9187 41.8875L37.4874 43.3312C37.2312 44.2187 36.4687 44.8625 35.5562 44.975C35.4562 44.9937 35.3625 45 35.2625 45ZM29 35.7312C22.7187 35.7312 17.6062 30.6187 17.6062 24.3375C18.2312 9.2187 39.7687 9.22495 40.3937 24.3375C40.3937 30.6187 35.2812 35.7312 29 35.7312ZM29 15.4437C24.1 15.4437 20.1125 19.4312 20.1125 24.3312C20.6 36.125 37.4062 36.125 37.8937 24.3312C37.8874 19.4312 33.9 15.4437 29 15.4437Z" fill="white"/>
<path d="M31.125 29.9688C30.7625 29.9688 30.4 29.8813 30.0625 29.7063L28.9312 29.1126L27.8 29.7063C27.025 30.1126 26.1062 30.0438 25.4 29.5313C24.6937 29.0188 24.35 28.1626 24.4937 27.3063L24.7062 26.0563L23.7937 25.1688C22.4375 23.8751 23.2 21.5376 25.0562 21.2813L26.3187 21.1001L26.8812 19.9626C27.6937 18.2813 30.1562 18.2813 30.9687 19.9626L31.5312 21.1001L32.7937 21.2813C34.65 21.5313 35.4125 23.8751 34.0562 25.1688L33.1437 26.0563L33.3562 27.3063C33.5062 28.1626 33.1562 29.0188 32.45 29.5313C32.0687 29.8251 31.6 29.9688 31.125 29.9688ZM28.9375 26.5813C29.3 26.5813 29.6625 26.6688 30 26.8438L30.8312 27.2813L30.675 26.3688C30.55 25.6313 30.7937 24.8751 31.3312 24.3501L31.9937 23.7063L31.075 23.5751C30.3312 23.4688 29.6937 23.0001 29.3562 22.3313L28.9375 21.4938L28.5187 22.3313C28.1875 23.0001 27.5437 23.4688 26.8 23.5751L25.8812 23.7063L26.5437 24.3501C27.0812 24.8751 27.325 25.6251 27.2 26.3688L27.0437 27.2813L27.875 26.8438C28.2062 26.6688 28.575 26.5813 28.9375 26.5813Z" fill="white"/>
</svg>
