<svg width="58" height="58" viewBox="0 0 58 58" fill="none" xmlns="http://www.w3.org/2000/svg">
<path d="M0 29C0 12.9837 12.9837 0 29 0C45.0163 0 58 12.9837 58 29C58 45.0163 45.0163 58 29 58C12.9837 58 0 45.0163 0 29Z" fill="#02131F"/>
<g clip-path="url(#clip0_8394_47191)">
<path d="M24 16.75H41.25C42.6307 16.75 43.75 17.8693 43.75 19.25V36.75C43.75 38.1307 42.6307 39.25 41.25 39.25H16.75C15.3693 39.25 14.25 38.1307 14.25 36.75V19.25C14.25 17.8693 15.3693 16.75 16.75 16.75H19V14.25M38.75 14.25V16.75" stroke="white" stroke-width="2.5" stroke-miterlimit="10" stroke-linecap="round" stroke-linejoin="round"/>
<path d="M25.5 34.25C28.9518 34.25 31.75 31.4518 31.75 28C31.75 24.5482 28.9518 21.75 25.5 21.75C22.0482 21.75 19.25 24.5482 19.25 28C19.25 31.4518 22.0482 34.25 25.5 34.25Z" stroke="white" stroke-width="2.5" stroke-miterlimit="10" stroke-linecap="round" stroke-linejoin="round"/>
<path d="M25.5 21.75V28H31.75M26.5 43.75H31.5M29 43.75V39.25" stroke="white" stroke-width="2.5" stroke-miterlimit="10" stroke-linecap="round" stroke-linejoin="round"/>
<path d="M36.25 24.25H38.75M36.25 29.25H38.75M36.25 34.25H38.75" stroke="white" stroke-width="2.5" stroke-miterlimit="10" stroke-linecap="round" stroke-linejoin="round"/>
</g>
<defs>
<clipPath id="clip0_8394_47191">
<rect width="32" height="32" fill="white" transform="translate(13 13)"/>
</clipPath>
</defs>
</svg>
