<svg width="56" height="56" viewBox="0 0 56 56" fill="none" xmlns="http://www.w3.org/2000/svg">
<path d="M47.5297 13.4034L49.7743 7.23618C50.1876 6.10079 49.6021 4.84551 48.4669 4.43226L42.2998 2.18762M49.7014 5.5635L6.09277 25.8985" stroke="url(#paint0_linear_8182_114767)" stroke-width="4.37531" stroke-miterlimit="10" stroke-linecap="round" stroke-linejoin="round"/>
<path d="M10.4798 53.8122C8.06343 53.8122 6.10449 51.8532 6.10449 49.4369V43.749C6.10449 41.3326 8.06343 39.3737 10.4798 39.3737C12.8962 39.3737 14.8551 41.3326 14.8551 43.749V49.4369C14.8551 51.8534 12.8963 53.8122 10.4798 53.8122ZM27.981 53.8122C25.5647 53.8122 23.6057 51.8532 23.6057 49.4369V34.9984C23.6057 32.582 25.5647 30.6231 27.981 30.6231C30.3974 30.6231 32.3563 32.582 32.3563 34.9984V49.4369C32.3563 51.8534 30.3975 53.8122 27.981 53.8122ZM45.4823 53.8122C43.0659 53.8122 41.107 51.8532 41.107 49.4369V26.2477C41.107 23.8314 43.0659 21.8724 45.4823 21.8724C47.8986 21.8724 49.8576 23.8314 49.8576 26.2477V49.4369C49.8576 51.8534 47.8987 53.8122 45.4823 53.8122Z" stroke="url(#paint1_linear_8182_114767)" stroke-width="4.37531" stroke-miterlimit="10" stroke-linecap="round" stroke-linejoin="round"/>
<defs>
<linearGradient id="paint0_linear_8182_114767" x1="27.9998" y1="-6.01999" x2="19.2029" y2="28.4406" gradientUnits="userSpaceOnUse">
<stop stop-color="#1D1DED"/>
<stop offset="1" stop-color="#1D9AED"/>
</linearGradient>
<linearGradient id="paint1_linear_8182_114767" x1="27.981" y1="10.8164" x2="12.7596" y2="55.0201" gradientUnits="userSpaceOnUse">
<stop stop-color="#1D1DED"/>
<stop offset="1" stop-color="#1D9AED"/>
</linearGradient>
</defs>
</svg>
