<svg xmlns="http://www.w3.org/2000/svg" width="162" height="42" fill="none" viewBox="0 0 162 42"><path fill="url(#a)" d="M45.36 31.642V10.416h5.249v21.226zm4.666 0v-4.42h8.98v4.42zm0-8.577v-4.42h8.368v4.42zm0-8.23v-4.419h8.806v4.42z"/><path fill="url(#b)" d="M62.617 31.642V10.416h5.423v21.226zm4.84 0v-4.71h8.632v4.71z"/><path fill="url(#c)" d="M81.292 31.642 75.11 10.416h5.598l4.637 17.417-1.02-.494h2.799l-1.05.494 4.315-17.417h5.424L90.04 31.642z"/><path fill="url(#d)" d="M98.613 31.642V10.416h5.423v21.226z"/><path fill="url(#e)" d="M118.846 32.224q-2.916 0-5.073-.989-2.159-1.017-3.587-2.646-1.429-1.658-2.129-3.576-.7-1.92-.7-3.722v-.64q0-2.006.729-3.925a10.6 10.6 0 0 1 2.187-3.519q1.458-1.57 3.587-2.5 2.159-.93 4.986-.93 2.8 0 4.928.93 2.158.93 3.616 2.5a10.6 10.6 0 0 1 2.187 3.519q.758 1.92.758 3.925v.64q0 1.803-.729 3.722-.7 1.919-2.128 3.576-1.429 1.629-3.587 2.646-2.158.99-5.045.989m0-5.06q1.4 0 2.508-.465a5.4 5.4 0 0 0 1.896-1.308 5.75 5.75 0 0 0 1.195-1.948q.408-1.134.408-2.443 0-1.395-.437-2.53a5.4 5.4 0 0 0-1.196-1.948 5.3 5.3 0 0 0-1.895-1.25q-1.108-.436-2.479-.436-1.4 0-2.507.436a5.3 5.3 0 0 0-1.896 1.25 5.4 5.4 0 0 0-1.195 1.948q-.41 1.135-.409 2.53 0 1.308.409 2.442a5.7 5.7 0 0 0 1.195 1.949 5.4 5.4 0 0 0 1.896 1.308q1.107.465 2.507.465"/><path fill="url(#f)" d="M133.609 31.642V10.416h8.894l7.086 16.923h1.02l-.583.523V10.416h5.074v21.226h-8.952l-7.086-16.923h-1.021l.583-.523v17.446z"/><mask id="g" width="24" height="27" x="11" y="4" maskUnits="userSpaceOnUse" style="mask-type:luminance"><path fill="#fff" d="M17.666 30.692c-.971-4.817-6.326-9.31-6.326-14.848 0-6.074 5.077-10.998 11.34-10.998S34.02 9.77 34.02 15.844c0 5.538-5.355 10.031-6.326 14.848z"/></mask><g mask="url(#g)"><path fill="#1d9aed" d="M34.02 4.846H11.34v25.846h22.68z"/><path fill="url(#h)" d="M34.02 4.846H11.34v25.846h22.68z"/></g><mask id="i" width="11" height="2" x="17" y="32" maskUnits="userSpaceOnUse" style="mask-type:luminance"><path fill="#fff" d="M27.54 32.308h-9.72v1.615h9.72z"/></mask><g mask="url(#i)"><path fill="#1d9aed" d="M27.54 32.308h-9.72v1.615h9.72z"/><path fill="url(#j)" d="M27.54 32.308h-9.72v1.615h9.72z"/></g><path fill="#1d9aed" d="M25.92 35.539h-6.48v1.615h6.48z"/><path fill="url(#k)" d="M25.92 35.539h-6.48v1.615h6.48z"/><path fill="#000" fill-opacity=".2" fill-rule="evenodd" d="M20.23 14.81a2.6 2.6 0 0 1-.159-.902c0-1.436 1.153-2.6 2.575-2.6s2.575 1.164 2.575 2.6c0 .471-.125.913-.342 1.295q.066-.091.133-.19c.735-1.07 1.75-2.26 3.16-1.48.502.276.873.737.965 1.315.17 1.062-.625 1.886-1.54 2.246l-.246.094c-.652.246-1.902.622-2.294 1.232-.169.262-.187.562-.14.865.19 1.22.439 2.201 1.293 3.135l.037.04c.223.244.436.502.624.775.696 1.004 1.043 2.27-.136 3.082l-.075.05.005-.004-.069.043-.013.008-.055.03-.017.01-.055.028-.007.003-.061.03-.015.006-.06.025-.015.006-.056.02-.023.008-.052.016c-1.239.37-2.028-.861-2.424-1.853l-.009-.02a11 11 0 0 1-.475-1.556c-.057-.24-.285-.828-.592-.834-.249-.005-.4.238-.494.438-.202.43-.278 1.007-.307 1.477-.04.62-.047 1.242-.092 1.863-.065.914-.216 2.949-1.477 2.966a1.44 1.44 0 0 1-.737-.183c-1.166-.662-1.022-2.774-.87-3.895.422-3.125 1.547-7.149-1.338-9.465-.9-.723-1.608-1.727-.794-2.803a1.76 1.76 0 0 1 1.365-.686c.746 0 1.282.51 1.605 1.148.264.52.464 1.08.702 1.616" clip-rule="evenodd"/><mask id="l" width="14" height="19" x="16" y="11" maskUnits="userSpaceOnUse" style="mask-type:luminance"><path fill="#fff" d="M22.643 11.308c1.258 0 2.278 1.01 2.278 2.255s-1.02 2.255-2.278 2.255-2.28-1.01-2.28-2.255c0-1.246 1.021-2.255 2.28-2.255M24.28 24.81l-.009-.022a11 11 0 0 1-.49-1.57s-.288-1.24-1.107-1.255c-.485-.01-.795.34-.986.741-.207.431-.332 1.028-.377 1.736-.097 1.493-.016 4.62-1.204 4.637s-1.54-1.54-1.236-3.748c.474-3.426 1.712-7.812-1.62-10.433-1.252-.984-1.212-1.707-.77-2.278.44-.572 1.644-.985 2.366.413s1.276 3.914 3.234 3.93 2.824-.969 3.514-1.953 1.556-2.064 2.76-1.413c1.203.65 1.09 2.239-.562 2.874S24.311 17.5 24.6 19.31c.217 1.363.514 2.486 1.517 3.563l.04.042c.866.92 1.925 2.445.61 3.334l-.062.04h-.001q-.03.02-.06.037l-.002.001-.058.032-.004.002-.054.028-.007.003-.05.024-.01.004-.05.02-.01.004-.046.016-.017.006-.042.013c-.806.235-1.49-.4-2.014-1.67"/></mask><g mask="url(#l)"><path fill="#fff" d="M29.16 11.308H16.2v17.769h12.96z"/></g><defs><linearGradient id="a" x1="100.23" x2="96.908" y1="2.006" y2="36.436" gradientUnits="userSpaceOnUse"><stop stop-color="#1d1ded"/><stop offset="1" stop-color="#1d9aed"/></linearGradient><linearGradient id="b" x1="100.23" x2="96.908" y1="2.006" y2="36.436" gradientUnits="userSpaceOnUse"><stop stop-color="#1d1ded"/><stop offset="1" stop-color="#1d9aed"/></linearGradient><linearGradient id="c" x1="100.23" x2="96.908" y1="2.006" y2="36.436" gradientUnits="userSpaceOnUse"><stop stop-color="#1d1ded"/><stop offset="1" stop-color="#1d9aed"/></linearGradient><linearGradient id="d" x1="100.23" x2="96.908" y1="2.006" y2="36.436" gradientUnits="userSpaceOnUse"><stop stop-color="#1d1ded"/><stop offset="1" stop-color="#1d9aed"/></linearGradient><linearGradient id="e" x1="100.23" x2="96.908" y1="2.006" y2="36.436" gradientUnits="userSpaceOnUse"><stop stop-color="#1d1ded"/><stop offset="1" stop-color="#1d9aed"/></linearGradient><linearGradient id="f" x1="100.23" x2="96.908" y1="2.006" y2="36.436" gradientUnits="userSpaceOnUse"><stop stop-color="#1d1ded"/><stop offset="1" stop-color="#1d9aed"/></linearGradient><linearGradient id="h" x1="11.34" x2="34.02" y1="17.769" y2="17.769" gradientUnits="userSpaceOnUse"><stop stop-color="#1d9aed"/><stop offset="1" stop-color="#1d1ded"/></linearGradient><linearGradient id="j" x1="17.82" x2="27.54" y1="33.115" y2="33.115" gradientUnits="userSpaceOnUse"><stop stop-color="#1d9aed"/><stop offset="1" stop-color="#1d1ded"/></linearGradient><linearGradient id="k" x1="19.44" x2="25.92" y1="36.346" y2="36.346" gradientUnits="userSpaceOnUse"><stop stop-color="#1d9aed"/><stop offset="1" stop-color="#1d1ded"/></linearGradient></defs></svg>