<svg width="162" height="42" viewBox="0 0 162 42" fill="none" xmlns="http://www.w3.org/2000/svg">
<path d="M45.36 31.6422V10.4161H50.6088V31.6422H45.36ZM50.0256 31.6422V27.2225H59.0069V31.6422H50.0256ZM50.0256 23.0645V18.6448H58.3945V23.0645H50.0256ZM50.0256 14.8358V10.4161H58.8319V14.8358H50.0256Z" fill="white"/>
<path d="M62.6168 31.6422V10.4161H68.0405V31.6422H62.6168ZM67.4573 31.6422V26.9318H76.0887V31.6422H67.4573Z" fill="white"/>
<path d="M81.2915 31.6422L75.1096 10.4161H80.7083L85.3447 27.8331L84.3241 27.3388H87.1235L86.0737 27.8331L90.3894 10.4161H95.8132L90.0395 31.6422H81.2915Z" fill="white"/>
<path d="M98.6125 31.6422V10.4161H104.036V31.6422H98.6125Z" fill="white"/>
<path d="M118.846 32.2238C116.902 32.2238 115.211 31.8942 113.773 31.2351C112.334 30.5567 111.138 29.6747 110.186 28.5891C109.233 27.4842 108.524 26.2921 108.057 25.0127C107.591 23.7333 107.357 22.4927 107.357 21.2908V20.6511C107.357 19.3136 107.6 18.0051 108.086 16.7258C108.572 15.427 109.301 14.2542 110.273 13.2074C111.245 12.1607 112.441 11.3271 113.86 10.7068C115.299 10.0865 116.961 9.77637 118.846 9.77637C120.713 9.77637 122.355 10.0865 123.774 10.7068C125.213 11.3271 126.418 12.1607 127.39 13.2074C128.362 14.2542 129.091 15.427 129.577 16.7258C130.083 18.0051 130.335 19.3136 130.335 20.6511V21.2908C130.335 22.4927 130.092 23.7333 129.606 25.0127C129.14 26.2921 128.43 27.4842 127.478 28.5891C126.525 29.6747 125.33 30.5567 123.891 31.2351C122.452 31.8942 120.771 32.2238 118.846 32.2238ZM118.846 27.1644C119.779 27.1644 120.615 27.0093 121.354 26.6991C122.093 26.389 122.725 25.9528 123.25 25.3907C123.774 24.8285 124.173 24.1791 124.445 23.4425C124.717 22.6865 124.853 21.8724 124.853 21.0001C124.853 20.0696 124.708 19.2264 124.416 18.4704C124.144 17.7144 123.745 17.065 123.22 16.5222C122.695 15.9794 122.064 15.5627 121.325 15.2719C120.586 14.9811 119.76 14.8358 118.846 14.8358C117.913 14.8358 117.077 14.9811 116.339 15.2719C115.6 15.5627 114.968 15.9794 114.443 16.5222C113.918 17.065 113.52 17.7144 113.248 18.4704C112.975 19.2264 112.839 20.0696 112.839 21.0001C112.839 21.8724 112.975 22.6865 113.248 23.4425C113.52 24.1791 113.918 24.8285 114.443 25.3907C114.968 25.9528 115.6 26.389 116.339 26.6991C117.077 27.0093 117.913 27.1644 118.846 27.1644Z" fill="white"/>
<path d="M133.609 31.6422V10.4161H142.503L149.589 27.3388H150.609L150.026 27.8622V10.4161H155.1V31.6422H146.148L139.062 14.7194H138.041L138.624 14.1961V31.6422H133.609Z" fill="white"/>
<mask id="mask0_8906_1857" style="mask-type:luminance" maskUnits="userSpaceOnUse" x="11" y="4" width="24" height="27">
<path d="M17.6662 30.6919C16.695 25.8749 11.34 21.382 11.34 15.8434C11.34 9.76965 16.4172 4.8457 22.68 4.8457C28.9429 4.8457 34.02 9.76965 34.02 15.8434C34.02 21.382 28.6651 25.8749 27.6939 30.6919H17.6662Z" fill="white"/>
</mask>
<g mask="url(#mask0_8906_1857)">
<path d="M34.02 4.8457H11.34V30.6919H34.02V4.8457Z" fill="white"/>
</g>
<mask id="mask1_8906_1857" style="mask-type:luminance" maskUnits="userSpaceOnUse" x="17" y="32" width="11" height="2">
<path d="M27.54 32.3076H17.82V33.923H27.54V32.3076Z" fill="white"/>
</mask>
<g mask="url(#mask1_8906_1857)">
<path d="M27.54 32.3076H17.82V33.923H27.54V32.3076Z" fill="white"/>
</g>
<path d="M25.92 35.5381H19.44V37.1535H25.92V35.5381Z" fill="white"/>
<path fill-rule="evenodd" clip-rule="evenodd" d="M20.2303 14.8091C20.1275 14.5282 20.0713 14.2245 20.0713 13.9077C20.0713 12.4719 21.2241 11.3076 22.6459 11.3076C24.0679 11.3076 25.2207 12.4717 25.2207 13.9077C25.2207 14.3791 25.0963 14.8212 24.879 15.2025C24.9234 15.1416 24.9677 15.0786 25.0122 15.0138C25.7473 13.9435 26.7611 12.7532 28.172 13.5321C28.6736 13.809 29.0451 14.27 29.1372 14.8478C29.3062 15.9101 28.512 16.7344 27.5962 17.0935C27.5149 17.1256 27.433 17.1568 27.3511 17.1876C26.6989 17.4335 25.4492 17.8101 25.0568 18.4195C24.888 18.6818 24.8695 18.9821 24.9168 19.2846C25.1077 20.5058 25.3557 21.4865 26.2103 22.42L26.2467 22.4597C26.4703 22.7039 26.6825 22.9618 26.8714 23.2345C27.5665 24.2389 27.9135 25.504 26.7351 26.3166C26.712 26.3326 26.6885 26.3482 26.66 26.3664L26.6652 26.363C26.6424 26.3778 26.6196 26.3919 26.5962 26.4058L26.5827 26.4136C26.5645 26.4243 26.5461 26.4346 26.5275 26.4448L26.5105 26.4538C26.4926 26.4634 26.4746 26.4728 26.4561 26.4818L26.4494 26.4852C26.4277 26.4961 26.4056 26.5062 26.3876 26.5142L26.3726 26.521C26.3527 26.5297 26.3328 26.538 26.3126 26.546L26.2983 26.5516C26.2796 26.5589 26.2608 26.5657 26.242 26.5723L26.2189 26.5802C26.2019 26.5858 26.1845 26.5911 26.1673 26.5963C24.928 26.9655 24.1393 25.7345 23.7427 24.743L23.7342 24.7221C23.5329 24.2185 23.3827 23.6946 23.2587 23.1666C23.2023 22.9272 22.9743 22.3391 22.6666 22.3329C22.4182 22.3279 22.2669 22.5705 22.1729 22.7713C21.9714 23.2012 21.8954 23.7781 21.8656 24.2482C21.8264 24.8685 21.8187 25.4899 21.7744 26.111C21.7094 27.0246 21.558 29.0595 20.2969 29.0767C20.0381 29.0802 19.7862 29.0231 19.56 28.8944C18.3942 28.2314 18.5375 26.1195 18.6891 24.9992C19.112 21.8741 20.2373 17.8499 17.3524 15.5341C16.4515 14.8112 15.744 13.8068 16.5578 12.7312C16.8734 12.3141 17.4028 12.0452 17.9231 12.0452C18.6692 12.0452 19.2051 12.5548 19.5281 13.1927C19.7917 13.7134 19.9924 14.2736 20.2303 14.8091Z" fill="black" fill-opacity="0.2"/>
<mask id="mask2_8906_1857" style="mask-type:luminance" maskUnits="userSpaceOnUse" x="16" y="11" width="14" height="19">
<path d="M22.6426 11.3076C23.9008 11.3076 24.9211 12.3173 24.9211 13.5624C24.9211 14.8079 23.9008 15.8175 22.6426 15.8175C21.3841 15.8175 20.3638 14.8078 20.3638 13.5624C20.3638 12.3172 21.3841 11.3076 22.6426 11.3076ZM24.2802 24.8103L24.2712 24.7883C24.0638 24.281 23.9092 23.749 23.7817 23.2172C23.7817 23.2172 23.4927 21.9787 22.6744 21.9627C22.1888 21.9535 21.8792 22.3031 21.6875 22.7044C21.4813 23.1349 21.3561 23.7322 21.3105 24.4401C21.2142 25.9326 21.2945 29.0608 20.107 29.0767C18.9197 29.0927 18.5666 27.5365 18.8714 25.3291C19.3447 21.9031 20.5826 17.5172 17.2508 14.8965C15.9991 13.912 16.0392 13.1894 16.4804 12.6178C16.9216 12.0461 18.1252 11.6332 18.8473 13.0306C19.5695 14.4281 20.1229 16.9449 22.0807 16.9609C24.0383 16.9766 24.9047 15.9923 25.5949 15.0077C26.2848 14.0231 27.1513 12.9434 28.3546 13.5945C29.5583 14.2455 29.4459 15.8334 27.7932 16.4685C26.1404 17.1036 24.3112 17.5006 24.6001 19.3109C24.8174 20.6737 25.1143 21.7967 26.1174 22.8734L26.1567 22.9154C27.023 23.8364 28.0822 25.3608 26.7664 26.2502C26.7459 26.264 26.7255 26.2771 26.7053 26.2899L26.705 26.2903L26.704 26.2908C26.6839 26.3034 26.664 26.3155 26.6442 26.3271H26.644L26.642 26.3283C26.6227 26.3393 26.6036 26.3499 26.5845 26.36L26.5832 26.3608L26.5804 26.3622C26.5624 26.3719 26.5444 26.381 26.5264 26.3896L26.519 26.3933C26.502 26.4013 26.485 26.409 26.4682 26.4166L26.4585 26.4207C26.4421 26.4277 26.4259 26.4344 26.4097 26.4407L26.3985 26.4451C26.3832 26.4508 26.368 26.4563 26.353 26.4613L26.3362 26.4669C26.322 26.4717 26.3079 26.4761 26.2939 26.4801C25.488 26.7152 24.8041 26.0801 24.2802 24.8103Z" fill="white"/>
</mask>
<g mask="url(#mask2_8906_1857)">
<path d="M29.16 11.3076H16.2V29.0768H29.16V11.3076Z" fill="#1D9AED"/>
<path d="M29.16 11.3076H16.2V29.0768H29.16V11.3076Z" fill="url(#paint0_linear_8906_1857)"/>
</g>
<defs>
<linearGradient id="paint0_linear_8906_1857" x1="16.2" y1="20.1922" x2="29.16" y2="20.1922" gradientUnits="userSpaceOnUse">
<stop stop-color="#1D9AED"/>
<stop offset="1" stop-color="#1D1DED"/>
</linearGradient>
</defs>
</svg>
