<svg width="48" height="48" viewBox="0 0 48 48" fill="none" xmlns="http://www.w3.org/2000/svg">
<g clip-path="url(#clip0_8174_82682)">
<path d="M14.7354 14.0415C14.7354 15.7471 13.3527 17.1297 11.6471 17.1297H8.94531M14.7354 33.9588C14.7354 32.2532 13.3527 30.8705 11.6471 30.8705H8.94531M17.8236 27.5661V20.4342L24.0001 16.8682L30.1765 20.4342V27.5661L24.0001 31.1321L17.8236 27.5661Z" stroke="url(#paint0_linear_8174_82682)" stroke-width="3.08824" stroke-miterlimit="10" stroke-linecap="round" stroke-linejoin="round"/>
<path d="M24.0001 37.5881C24.0001 40.1465 26.0741 42.2205 28.6325 42.2205C30.6567 42.2205 32.3595 40.9138 32.9898 39.1045C33.0829 39.1087 33.1706 39.1322 33.2648 39.1322C36.6759 39.1322 39.4413 36.3669 39.4413 32.9558C39.4413 32.2201 39.2909 31.5245 39.0549 30.8703C41.1577 29.1718 42.2207 26.9134 42.2207 23.9999C42.2207 21.0864 41.1577 18.8279 39.0549 17.1295C39.2909 16.4752 39.4413 15.7795 39.4413 15.044C39.4413 11.6327 36.6759 8.86753 33.2648 8.86753C33.1706 8.86753 33.0829 8.89108 32.9898 8.89525C32.3595 7.08593 30.6567 5.7793 28.6325 5.7793C26.0741 5.7793 24.0001 7.85328 24.0001 10.4116C24.0001 7.85328 21.9261 5.7793 19.3678 5.7793C17.3436 5.7793 15.6407 7.08593 15.0104 8.89525C14.9173 8.89108 14.8297 8.86753 14.7354 8.86753C11.3243 8.86753 8.55895 11.6327 8.55895 15.044C8.55895 15.7795 8.70935 16.4752 8.94537 17.1295C6.84259 18.8279 5.77954 21.0864 5.77954 23.9999C5.77954 26.9134 6.84259 29.1718 8.94537 30.8703C8.70935 31.5245 8.55895 32.2201 8.55895 32.9558C8.55895 36.3669 11.3243 39.1322 14.7354 39.1322C14.8297 39.1322 14.9173 39.1087 15.0104 39.1045C15.6407 40.9138 17.3436 42.2205 19.3678 42.2205C21.9261 42.2205 24.0001 40.1465 24.0001 37.5881Z" stroke="url(#paint1_linear_8174_82682)" stroke-width="3.08824" stroke-miterlimit="10" stroke-linecap="round" stroke-linejoin="round"/>
<path d="M33.2649 14.0415C33.2649 15.7471 34.6476 17.1297 36.3531 17.1297H39.0549M33.2649 33.9588C33.2649 32.2532 34.6476 30.8705 36.3531 30.8705H39.0549" stroke="url(#paint2_linear_8174_82682)" stroke-width="3.08824" stroke-miterlimit="10" stroke-linecap="round" stroke-linejoin="round"/>
</g>
<defs>
<linearGradient id="paint0_linear_8174_82682" x1="19.5609" y1="7.14707" x2="8.15093" y2="32.9314" gradientUnits="userSpaceOnUse">
<stop stop-color="#1D1DED"/>
<stop offset="1" stop-color="#1D9AED"/>
</linearGradient>
<linearGradient id="paint1_linear_8174_82682" x1="24.0001" y1="-6.83496" x2="2.23268" y2="39.3109" gradientUnits="userSpaceOnUse">
<stop stop-color="#1D1DED"/>
<stop offset="1" stop-color="#1D9AED"/>
</linearGradient>
<linearGradient id="paint2_linear_8174_82682" x1="36.1599" y1="7.14707" x2="22.3883" y2="15.6342" gradientUnits="userSpaceOnUse">
<stop stop-color="#1D1DED"/>
<stop offset="1" stop-color="#1D9AED"/>
</linearGradient>
<clipPath id="clip0_8174_82682">
<rect width="39.5294" height="39.5294" fill="white" transform="translate(4.23535 4.23535)"/>
</clipPath>
</defs>
</svg>
