<svg width="48" height="48" viewBox="0 0 48 48" fill="none" xmlns="http://www.w3.org/2000/svg">
<g clip-path="url(#clip0_8174_82664)">
<path d="M3.16181 8.09006H8.4795C4.40119 12.1647 1.875 17.7927 1.875 24C1.875 26.9718 2.454 29.8107 3.50513 32.41M44.8382 43.6599H39.5205C43.5988 39.5852 46.125 33.9573 46.125 27.75C46.125 24.7782 45.546 21.9393 44.4949 19.34M39.9099 3.16181V8.4795C35.8352 4.40119 30.2073 1.875 24 1.875C21.0268 1.875 18.1867 2.45456 15.5863 3.50662M8.09006 44.8382V39.5205C12.1647 43.5988 17.7927 46.125 24 46.125C26.9718 46.125 29.8107 45.546 32.41 44.4949M12.75 31.5V35.25M20.25 29.625V35.25M27.75 25.875V35.25M35.25 22.125V35.25" stroke="url(#paint0_linear_8174_82664)" stroke-width="3.75" stroke-miterlimit="10" stroke-linecap="round" stroke-linejoin="round"/>
<path d="M12.75 24C21.1199 22.326 28.8889 18.4415 35.25 12.75" stroke="url(#paint1_linear_8174_82664)" stroke-width="3.75" stroke-miterlimit="10" stroke-linecap="round" stroke-linejoin="round"/>
</g>
<defs>
<linearGradient id="paint0_linear_8174_82664" x1="24" y1="-13.4423" x2="-2.4319" y2="42.5919" gradientUnits="userSpaceOnUse">
<stop stop-color="#1D1DED"/>
<stop offset="1" stop-color="#1D9AED"/>
</linearGradient>
<linearGradient id="paint1_linear_8174_82664" x1="24" y1="8.85577" x2="20.1088" y2="25.3539" gradientUnits="userSpaceOnUse">
<stop stop-color="#1D1DED"/>
<stop offset="1" stop-color="#1D9AED"/>
</linearGradient>
<clipPath id="clip0_8174_82664">
<rect width="48" height="48" fill="white"/>
</clipPath>
</defs>
</svg>
