<svg width="32" height="32" viewBox="0 0 32 32" fill="none" xmlns="http://www.w3.org/2000/svg">
<g clip-path="url(#clip0_8139_80810)">
<path d="M13.6783 30.75H5C2.92894 30.75 1.25 29.0711 1.25 27V5C1.25 2.92894 2.92894 1.25 5 1.25H19.5C21.5711 1.25 23.25 2.92894 23.25 5V8.33906" stroke="url(#paint0_linear_8139_80810)" stroke-width="2.5" stroke-miterlimit="10" stroke-linecap="round" stroke-linejoin="round"/>
<path d="M8.75 25.75C10.1307 25.75 11.25 24.6307 11.25 23.25C11.25 21.8693 10.1307 20.75 8.75 20.75C7.36929 20.75 6.25 21.8693 6.25 23.25C6.25 24.6307 7.36929 25.75 8.75 25.75Z" stroke="url(#paint1_linear_8139_80810)" stroke-width="2.5" stroke-miterlimit="10" stroke-linecap="round" stroke-linejoin="round"/>
<path d="M13.75 6.25H18.25M6.25 11H18.25M6.25 15.75H15.75M22 25.75L20.7904 17.5521C20.7634 17.3693 20.7499 17.1848 20.75 17C20.75 14.9289 22.4289 13.25 24.5 13.25C26.5711 13.25 28.25 14.9289 28.25 17C28.25 17.1876 28.2363 17.3719 28.2096 17.5521L27 25.75H28.25C29.6307 25.75 30.75 26.8693 30.75 28.25C30.75 29.6307 29.6307 30.75 28.25 30.75H20.75C19.3693 30.75 18.25 29.6307 18.25 28.25C18.25 26.8693 19.3693 25.75 20.75 25.75H22Z" stroke="url(#paint2_linear_8139_80810)" stroke-width="2.5" stroke-miterlimit="10" stroke-linecap="round" stroke-linejoin="round"/>
</g>
<defs>
<linearGradient id="paint0_linear_8139_80810" x1="12.25" y1="-8.96154" x2="-8.38173" y2="23.6567" gradientUnits="userSpaceOnUse">
<stop stop-color="#1D1DED"/>
<stop offset="1" stop-color="#1D9AED"/>
</linearGradient>
<linearGradient id="paint1_linear_8139_80810" x1="8.75" y1="19.0192" x2="5.76334" y2="25.3508" gradientUnits="userSpaceOnUse">
<stop stop-color="#1D1DED"/>
<stop offset="1" stop-color="#1D9AED"/>
</linearGradient>
<linearGradient id="paint2_linear_8139_80810" x1="18.5" y1="-2.23077" x2="3.86539" y2="28.7938" gradientUnits="userSpaceOnUse">
<stop stop-color="#1D1DED"/>
<stop offset="1" stop-color="#1D9AED"/>
</linearGradient>
<clipPath id="clip0_8139_80810">
<rect width="32" height="32" fill="white"/>
</clipPath>
</defs>
</svg>
