<svg width="32" height="32" viewBox="0 0 32 32" fill="none" xmlns="http://www.w3.org/2000/svg">
<g clip-path="url(#clip0_8139_80794)">
<path d="M30.7561 14.7495H29.3852C28.9246 8.48972 23.5101 3.07536 17.2505 2.61473V1.24392C17.1845 -0.415265 14.815 -0.414014 14.7495 1.24392V2.61473C8.48981 3.07536 3.07539 8.4899 2.61476 14.7495H1.24395C-0.415234 14.8155 -0.413984 17.185 1.24395 17.2505H2.61476C2.90057 20.3692 4.25238 23.2637 6.4943 25.5057C8.73622 27.7476 11.6308 29.0994 14.7495 29.3852V30.756C14.8155 32.4152 17.185 32.414 17.2505 30.756V29.3852C20.3691 29.0993 23.2637 27.7475 25.5056 25.5057C27.7476 23.2637 29.0994 20.3692 29.3852 17.2505H30.756C32.4153 17.1844 32.414 14.8149 30.7561 14.7495ZM16 26.942C9.96661 26.942 5.05802 22.0334 5.05802 16C5.65908 1.48396 26.3432 1.48814 26.942 16.0001C26.942 22.0334 22.0335 26.942 16 26.942Z" fill="url(#paint0_linear_8139_80794)"/>
<path d="M16 19.7513C13.9314 19.7513 12.2485 18.0683 12.2485 15.9997C12.4546 11.0228 19.5462 11.0242 19.7516 15.9997C19.7516 18.0683 18.0686 19.7513 16 19.7513ZM16 14.7492C15.3105 14.7492 14.7495 15.3102 14.7495 15.9997C14.8182 17.6587 17.1821 17.6582 17.2505 15.9997C17.2505 15.3102 16.6896 14.7492 16 14.7492Z" fill="url(#paint1_linear_8139_80794)"/>
</g>
<defs>
<linearGradient id="paint0_linear_8139_80794" x1="16" y1="-11.0769" x2="-3.11454" y2="29.4449" gradientUnits="userSpaceOnUse">
<stop stop-color="#1D1DED"/>
<stop offset="1" stop-color="#1D9AED"/>
</linearGradient>
<linearGradient id="paint1_linear_8139_80794" x1="16" y1="9.67707" x2="11.5371" y2="19.1627" gradientUnits="userSpaceOnUse">
<stop stop-color="#1D1DED"/>
<stop offset="1" stop-color="#1D9AED"/>
</linearGradient>
<clipPath id="clip0_8139_80794">
<rect width="32" height="32" fill="white"/>
</clipPath>
</defs>
</svg>
