<svg width="108" height="94" viewBox="0 0 108 94" fill="none" xmlns="http://www.w3.org/2000/svg">
<path d="M40.3918 46.25L49.3334 61.6667C42.5501 61.6667 36.7431 64.0819 31.9126 68.9125C27.082 73.7431 24.6668 79.55 24.6668 86.3333C24.6668 93.1167 27.082 98.9236 31.9126 103.754C36.7432 108.585 42.5501 111 49.3334 111C56.1168 111 61.9237 108.585 66.7543 103.754C71.5848 98.9236 74.0001 93.1167 74.0001 86.3333C74.0001 83.9694 73.7175 81.7854 73.1522 79.7812C72.5869 77.7771 71.739 75.85 70.6084 74L51.0293 40.0833C50.5154 39.1583 49.7959 38.4132 48.8709 37.8479C47.9459 37.2826 46.9181 37 45.7876 37C43.4237 37 41.6508 38.0278 40.4688 40.0833C39.2869 42.1389 39.2612 44.1944 40.3918 46.25ZM95.8918 46.25L104.833 61.6667C98.0501 61.6667 92.2432 64.0819 87.4126 68.9125C82.582 73.7431 80.1668 79.55 80.1668 86.3333C80.1668 93.1167 82.582 98.9236 87.4126 103.754C92.2432 108.585 98.0501 111 104.833 111C111.617 111 117.424 108.585 122.254 103.754C127.085 98.9236 129.5 93.1167 129.5 86.3333C129.5 83.9694 129.217 81.7854 128.652 79.7812C128.087 77.7771 127.239 75.85 126.108 74L106.529 40.0833C106.015 39.1583 105.296 38.4132 104.371 37.8479C103.446 37.2826 102.418 37 101.288 37C98.9237 37 97.1508 38.0278 95.9688 40.0833C94.7869 42.1389 94.7612 44.1944 95.8918 46.25Z" fill="black" fill-opacity="0.2"/>
</svg>
