<svg width="56" height="56" viewBox="0 0 56 56" fill="none" xmlns="http://www.w3.org/2000/svg">
<path d="M47.5298 13.4035L49.7744 7.2363C50.1877 6.10091 49.6023 4.84563 48.467 4.43239L42.2999 2.18774M49.7015 5.56362L6.0929 25.8986" stroke="white" stroke-width="4.37531" stroke-miterlimit="10" stroke-linecap="round" stroke-linejoin="round"/>
<path d="M10.4799 53.8123C8.06355 53.8123 6.10461 51.8534 6.10461 49.437V43.7491C6.10461 41.3327 8.06355 39.3738 10.4799 39.3738C12.8963 39.3738 14.8552 41.3327 14.8552 43.7491V49.437C14.8552 51.8535 12.8964 53.8123 10.4799 53.8123ZM27.9812 53.8123C25.5648 53.8123 23.6058 51.8534 23.6058 49.437V34.9985C23.6058 32.5821 25.5648 30.6232 27.9812 30.6232C30.3975 30.6232 32.3565 32.5821 32.3565 34.9985V49.437C32.3565 51.8535 30.3976 53.8123 27.9812 53.8123ZM45.4824 53.8123C43.066 53.8123 41.1071 51.8534 41.1071 49.437V26.2479C41.1071 23.8315 43.066 21.8726 45.4824 21.8726C47.8988 21.8726 49.8577 23.8315 49.8577 26.2479V49.437C49.8577 51.8535 47.8989 53.8123 45.4824 53.8123Z" stroke="white" stroke-width="4.37531" stroke-miterlimit="10" stroke-linecap="round" stroke-linejoin="round"/>
</svg>
