<svg width="56" height="56" viewBox="0 0 56 56" fill="none" xmlns="http://www.w3.org/2000/svg">
<g clip-path="url(#clip0_8042_81076)">
<path d="M14.875 13.8918C14.875 16.308 12.9162 18.2668 10.5 18.2668H6.67242M14.875 42.108C14.875 39.6918 12.9162 37.733 10.5 37.733H6.67242M19.25 33.0517V22.9481L28 17.8963L36.75 22.9481V33.0517L28 38.1035L19.25 33.0517Z" stroke="white" stroke-width="4.375" stroke-miterlimit="10" stroke-linecap="round" stroke-linejoin="round"/>
<path d="M28 47.25C28 50.8744 30.9381 53.8125 34.5625 53.8125C37.4301 53.8125 39.8425 51.9614 40.7354 49.3982C40.8673 49.4041 40.9915 49.4375 41.125 49.4375C45.9574 49.4375 49.875 45.5199 49.875 40.6875C49.875 39.6453 49.6619 38.6599 49.3276 37.7331C52.3065 35.3269 53.8125 32.1275 53.8125 28C53.8125 23.8725 52.3065 20.6731 49.3276 18.2669C49.6619 17.3401 49.875 16.3544 49.875 15.3125C49.875 10.4798 45.9574 6.5625 41.125 6.5625C40.9915 6.5625 40.8673 6.59586 40.7354 6.60177C39.8425 4.03856 37.4301 2.1875 34.5625 2.1875C30.9381 2.1875 28 5.12564 28 8.75C28 5.12564 25.0619 2.1875 21.4375 2.1875C18.5699 2.1875 16.1575 4.03856 15.2646 6.60177C15.1327 6.59586 15.0085 6.5625 14.875 6.5625C10.0426 6.5625 6.125 10.4798 6.125 15.3125C6.125 16.3544 6.33806 17.3401 6.67242 18.2669C3.69348 20.6731 2.1875 23.8725 2.1875 28C2.1875 32.1275 3.69348 35.3269 6.67242 37.7331C6.33806 38.6599 6.125 39.6453 6.125 40.6875C6.125 45.5199 10.0426 49.4375 14.875 49.4375C15.0085 49.4375 15.1327 49.4041 15.2646 49.3982C16.1575 51.9614 18.5699 53.8125 21.4375 53.8125C25.0619 53.8125 28 50.8744 28 47.25Z" stroke="white" stroke-width="4.375" stroke-miterlimit="10" stroke-linecap="round" stroke-linejoin="round"/>
<path d="M41.125 13.8918C41.125 16.308 43.0838 18.2668 45.5 18.2668H49.3276M41.125 42.108C41.125 39.6918 43.0838 37.733 45.5 37.733H49.3276" stroke="white" stroke-width="4.375" stroke-miterlimit="10" stroke-linecap="round" stroke-linejoin="round"/>
</g>
<defs>
<clipPath id="clip0_8042_81076">
<rect width="56" height="56" fill="white"/>
</clipPath>
</defs>
</svg>
