<svg width="56" height="56" viewBox="0 0 56 56" fill="none" xmlns="http://www.w3.org/2000/svg">
<mask id="mask0_8180_113975" style="mask-type:luminance" maskUnits="userSpaceOnUse" x="0" y="0" width="56" height="56">
<path d="M0 4.19617e-05H55.9998V55.9999H0V4.19617e-05Z" fill="white"/>
</mask>
<g mask="url(#mask0_8180_113975)">
<path d="M25.8125 31.9374C25.8125 33.1455 26.7918 34.1249 28 34.1249C29.2081 34.1249 30.1875 33.1455 30.1875 31.9374C30.1875 30.7292 29.2081 29.7499 28 29.7499C26.7918 29.7499 25.8125 30.7292 25.8125 31.9374Z" fill="#02131F"/>
<path d="M49.8749 31.9374C49.8749 44.0186 40.0811 53.8124 27.9999 53.8124C15.9187 53.8124 6.125 44.0186 6.125 31.9374C6.125 19.8562 15.9187 10.0625 27.9999 10.0625C40.0811 10.0625 49.8749 19.8562 49.8749 31.9374Z" stroke="#02131F" stroke-width="4.37499" stroke-miterlimit="10" stroke-linecap="round" stroke-linejoin="round"/>
<path d="M23.625 2.1875H32.375" stroke="#02131F" stroke-width="4.37499" stroke-miterlimit="10" stroke-linecap="round" stroke-linejoin="round"/>
<path d="M38.4129 36.9886L36.4514 29.6654C36.0674 28.2312 35.3126 26.8757 34.1873 25.7504C33.062 24.625 31.7065 23.8703 30.2723 23.4862L22.9491 21.5248C21.4887 21.1336 19.8654 21.5108 18.7193 22.6567C17.5734 23.8027 17.1962 25.4261 17.5873 26.8863L19.5488 34.2095C19.933 35.6439 20.6876 36.9993 21.813 38.1247C22.9384 39.2499 24.2938 40.0047 25.7281 40.3887L33.0512 42.3503C34.5116 42.7415 36.135 42.3642 37.2809 41.2182C38.4268 40.0723 38.8041 38.449 38.4129 36.9886Z" stroke="#02131F" stroke-width="4.37499" stroke-miterlimit="10" stroke-linecap="round" stroke-linejoin="round"/>
</g>
</svg>
