<svg width="56" height="56" viewBox="0 0 56 56" fill="none" xmlns="http://www.w3.org/2000/svg">
<g clip-path="url(#clip0_8042_80884)">
<mask id="mask0_8042_80884" style="mask-type:luminance" maskUnits="userSpaceOnUse" x="0" y="0" width="56" height="56">
<path d="M0 0.000164032H55.9998V56H0V0.000164032Z" fill="white"/>
</mask>
<g mask="url(#mask0_8042_80884)">
<path d="M35.7655 27.8906C35.7655 32.1191 32.3377 35.5469 28.1093 35.5469C23.8809 35.5469 20.4531 32.1191 20.4531 27.8906C20.4531 23.6622 23.8809 20.2344 28.1093 20.2344C32.3377 20.2344 35.7655 23.6622 35.7655 27.8906Z" stroke="white" stroke-width="4.37499" stroke-miterlimit="10" stroke-linecap="round" stroke-linejoin="round"/>
<path d="M44.5343 42.3083C46.642 43.4958 49.3169 42.7565 50.509 40.6571C51.7012 38.5575 50.9591 35.8928 48.8514 34.7052L48.7163 34.6285C47.2775 33.8114 46.4664 32.2033 46.691 30.564C46.8085 29.7052 46.8673 28.8395 46.8671 27.9728C46.8671 27.0466 46.8002 26.136 46.6714 25.2456C46.4335 23.6023 47.2511 21.9849 48.695 21.165L48.8514 21.076C50.9591 19.8886 51.7012 17.2239 50.509 15.1243C49.3169 13.0249 46.642 12.2856 44.5343 13.4731L44.3425 13.582C42.8819 14.4115 41.0724 14.2442 39.7611 13.1943C38.3057 12.0284 36.6857 11.0844 34.954 10.3928C33.4008 9.77304 32.3749 8.27876 32.3749 6.60653V6.56267C32.3749 4.14636 30.4161 2.18768 27.9999 2.18768C25.5837 2.18768 23.6249 4.14636 23.6249 6.56267C23.6249 8.24256 22.5897 9.74197 21.0263 10.3565C19.2752 11.0455 17.6369 11.9922 16.1655 13.1652C14.8546 14.2096 13.0485 14.3721 11.5911 13.5444L11.4656 13.4731C9.358 12.2856 6.68302 13.0249 5.49083 15.1243C4.29865 17.2239 5.04087 19.8886 7.14852 21.076L7.18362 21.096C8.64137 21.924 9.46617 23.5579 9.22346 25.2166C9.09005 26.1293 9.02319 27.0504 9.02342 27.9728C9.02342 28.8695 9.08598 29.7517 9.20684 30.6153C9.43653 32.2562 8.623 33.8678 7.1822 34.6861L7.14852 34.7052C5.04087 35.8928 4.29865 38.5575 5.49083 40.6571C6.68302 42.7565 9.35789 43.4958 11.4655 42.3083" stroke="white" stroke-width="4.37499" stroke-miterlimit="10" stroke-linecap="round" stroke-linejoin="round"/>
<path d="M16.0781 53.8125C16.0781 47.6829 21.053 42.6563 27.1898 42.6563H29.2476C35.3843 42.6563 40.3593 47.6829 40.3593 53.8125" stroke="white" stroke-width="4.37499" stroke-miterlimit="10" stroke-linecap="round" stroke-linejoin="round"/>
</g>
</g>
<defs>
<clipPath id="clip0_8042_80884">
<rect width="56" height="56" fill="white"/>
</clipPath>
</defs>
</svg>
