<svg xmlns="http://www.w3.org/2000/svg" width="196" height="196" fill="none" viewBox="0 0 196 196"><path fill="url(#a)" stroke="#02131f" stroke-width="5.158" d="M102.425 9.008a5.157 5.157 0 0 0 7.111.64l5.262-4.21 3.446 5.79a5.16 5.16 0 0 0 6.883 1.899l5.928-3.201 2.357 6.311a5.16 5.16 0 0 0 6.434 3.098l6.404-2.092 1.192 6.631a5.16 5.16 0 0 0 5.778 4.197l6.675-.915-.011 6.738a5.157 5.157 0 0 0 4.934 5.16l6.732.293-1.214 6.627a5.157 5.157 0 0 0 3.934 5.959l6.571 1.489-2.378 6.304a5.16 5.16 0 0 0 2.807 6.566l6.199 2.638-3.465 5.778a5.16 5.16 0 0 0 1.589 6.962l5.629 3.702-4.441 5.067a5.16 5.16 0 0 0 .321 7.133l4.877 4.649-5.275 4.192a5.16 5.16 0 0 0-.958 7.076l3.969 5.445-5.939 3.182a5.16 5.16 0 0 0-2.206 6.791l2.933 6.066-6.411 2.072a5.16 5.16 0 0 0-3.384 6.288l1.803 6.491-6.678.895a5.16 5.16 0 0 0-4.452 5.582l.615 6.71-6.73-.314a5.16 5.16 0 0 0-5.377 4.699l-.594 6.71-6.566-1.508a5.157 5.157 0 0 0-6.13 3.662l-1.783 6.497-6.19-2.657a5.16 5.16 0 0 0-6.686 2.508l-2.913 6.075-5.617-3.72a5.16 5.16 0 0 0-7.026 1.274l-3.951 5.457-4.863-4.663a5.157 5.157 0 0 0-7.14 0l-4.863 4.663-3.95-5.457a5.16 5.16 0 0 0-7.027-1.274l-5.617 3.72-2.913-6.075a5.16 5.16 0 0 0-6.686-2.508l-6.19 2.657-1.783-6.497a5.157 5.157 0 0 0-6.13-3.662l-6.566 1.508-.594-6.71a5.16 5.16 0 0 0-5.377-4.699l-6.73.314.615-6.71a5.16 5.16 0 0 0-4.452-5.582l-6.678-.895 1.803-6.491a5.16 5.16 0 0 0-3.384-6.288l-6.41-2.072 2.932-6.066a5.16 5.16 0 0 0-2.206-6.791l-5.939-3.182 3.969-5.445a5.16 5.16 0 0 0-.958-7.076l-5.275-4.192 4.877-4.649a5.16 5.16 0 0 0 .32-7.133l-4.44-5.067 5.63-3.702a5.16 5.16 0 0 0 1.588-6.962L8.531 68.93l6.2-2.638a5.16 5.16 0 0 0 2.806-6.566l-2.378-6.304 6.571-1.49a5.16 5.16 0 0 0 3.934-5.958l-1.214-6.627 6.732-.292a5.16 5.16 0 0 0 4.934-5.161l-.01-6.738 6.674.915a5.16 5.16 0 0 0 5.778-4.197l1.192-6.63 6.404 2.091a5.16 5.16 0 0 0 6.434-3.098l2.357-6.311 5.928 3.201a5.157 5.157 0 0 0 6.883-1.9l3.446-5.789 5.262 4.21a5.16 5.16 0 0 0 7.111-.64L98 3.927z"/><circle cx="97.355" cy="97.355" r="77.368" stroke="#f0f3ff" stroke-width="1.289"/><path fill="#fff" d="m101.059 38.096.352-8.31-1.843-.077.055-1.289 3.349.142-.405 9.598zm3.414.211.159-1.085 3.01-2.4q.885-.705 1.392-1.139.52-.444.768-.8.26-.353.322-.773.101-.69-.266-1.12-.364-.446-1.029-.542a1.87 1.87 0 0 0-1.244.221q-.554.31-.853 1.022l-1.271-.577a2.9 2.9 0 0 1 .803-1.211q.541-.494 1.249-.704.721-.207 1.5-.093.906.132 1.531.576.628.43.91 1.085.295.656.18 1.446a2.7 2.7 0 0 1-.354.991q-.262.457-.751.946-.486.475-1.224 1.059l-2.655 2.113 4.326.633-.187 1.276zm10.35 1.995.72-2.49-2.49-.72.358-1.238 2.49.72.712-2.466 1.239.358-.712 2.465 2.465.713-.358 1.238-2.465-.712-.72 2.49zm9.738 3.68 1.935-3.876-.586-6.188 1.534.766.448 4.994-.543-.27 4.249-2.65 1.534.765-5.286 3.256-1.935 3.877zm5.225 2.76 5.423-7.93 5.226 3.573-.764 1.118-3.971-2.715-1.557 2.278 3.757 2.57-.764 1.117-3.758-2.57-1.572 2.3 3.97 2.715-.764 1.117zm5.672 3.902 8.972-4.817 1.39 1.27-3.981 9.372-1.2-1.096.909-2.085-2.886-2.635-2.004 1.087zm4.441-.695 2.219 2.026 2.133-4.862.315.287zm2.669 7.381 7.443-6.073 2.209 2.707q.612.75.796 1.547a2.6 2.6 0 0 1-.073 1.542q-.25.753-.98 1.349-.77.627-1.637.686a2.8 2.8 0 0 1-1.639-.377l-1.595 4.164L146 61.536l1.755-4.477.178 1.136-1.606-1.968-2.797 2.282zm4.808-1.96 1.264 1.55q.334.408.738.578t.815.1q.428-.065.818-.384.39-.318.531-.716.159-.396.064-.818a1.9 1.9 0 0 0-.419-.84l-1.263-1.548zm2.01 11.534a4.2 4.2 0 0 1-.578-1.609 3.95 3.95 0 0 1 .127-1.612 3.8 3.8 0 0 1 .758-1.39l1.129.824q-.582.758-.644 1.578t.39 1.572q.266.441.598.693.344.245.704.268a1.12 1.12 0 0 0 .699-.165q.452-.273.564-.686t-.033-1.004l-.446-1.84q-.272-1.1.021-1.939a2.5 2.5 0 0 1 1.098-1.325q.696-.419 1.421-.39a2.73 2.73 0 0 1 1.395.44q.663.428 1.13 1.2.445.741.547 1.508.112.76-.081 1.464-.187.715-.663 1.273l-1.127-.796q.504-.636.545-1.368.048-.72-.359-1.395a2 2 0 0 0-.576-.63 1.26 1.26 0 0 0-.69-.247 1.25 1.25 0 0 0-.697.194q-.397.24-.553.68t.002 1.052l.412 1.709q.295 1.162.031 2-.252.828-1.081 1.328a2.44 2.44 0 0 1-1.434.368 2.86 2.86 0 0 1-1.432-.477q-.678-.45-1.177-1.278m4.901 10.75a5 5 0 0 1-.291-1.962 5 5 0 0 1 .465-1.83 5 5 0 0 1 1.136-1.518 5.1 5.1 0 0 1 1.738-1.005 5.1 5.1 0 0 1 1.986-.3q.991.064 1.834.479a4.6 4.6 0 0 1 1.493 1.144q.652.728.997 1.713a5 5 0 0 1 .291 1.962 4.6 4.6 0 0 1-.454 1.825 4.7 4.7 0 0 1-1.135 1.518 5.1 5.1 0 0 1-1.738 1.006 5 5 0 0 1-1.99.287 4.8 4.8 0 0 1-1.83-.466 4.8 4.8 0 0 1-1.506-1.14 5 5 0 0 1-.996-1.713m1.314-.46a3.4 3.4 0 0 0 1.775 1.987q.617.276 1.31.306a3.9 3.9 0 0 0 1.424-.225 3.8 3.8 0 0 0 1.241-.708 3.6 3.6 0 0 0 .833-1.057q.309-.6.355-1.286a3.4 3.4 0 0 0-.196-1.38 3.5 3.5 0 0 0-.712-1.212 3.3 3.3 0 0 0-1.076-.77 3.6 3.6 0 0 0-1.31-.307 3.9 3.9 0 0 0-1.407.233 4 4 0 0 0-1.258.7 3.6 3.6 0 0 0-.832 1.057 3.42 3.42 0 0 0-.147 2.661m.87 6.71 9.458-1.683 1.095 6.158-1.333.237-.828-4.66-2.844.506.738 4.152-1.333.237-.738-4.152-3.948.703zm1.358 9.667 9.606-.104.068 6.331-1.353.015-.053-4.81-2.759.03.049 4.552-1.353.015-.05-4.552-2.785.03.052 4.81-1.354.014zm.055 6.886 4.432 3.716 5.093-2.465-.216 1.715-4.263 2.062.092-.729 3.622 3.029-.216 1.715-4.325-3.638-5.214 2.501.215-1.714 4.37-2.088-.104.728-3.7-3.13zm-1.273 8.994 9.266 2.532-.921 3.371q-.255.933-.797 1.547a2.6 2.6 0 0 1-1.301.847q-.755.222-1.664-.026-.895-.246-1.43-.832a2.74 2.74 0 0 1-.692-1.379q-.155-.805.1-1.738l.52-1.903-3.483-.951zm4.387 2.776-.53 1.941q-.137.497-.039.925.097.428.388.734.303.31.788.443.484.132.891.016.419-.113.707-.435.301-.32.437-.816l.53-1.941zm-6.711 5.213 8.834 3.774-2.487 5.822-1.245-.532 1.889-4.423-2.537-1.084-1.789 4.186-1.245-.532 1.788-4.186-2.561-1.094-1.889 4.423-1.245-.532zm-3.161 7.053 8.236 4.947-1.8 2.995q-.498.829-1.186 1.274a2.6 2.6 0 0 1-1.475.452q-.794.02-1.601-.465-.85-.511-1.2-1.307a2.8 2.8 0 0 1-.2-1.67l-4.459-.09.89-1.482 4.808.135-1.009.552 1.308-2.177-3.095-1.859zm3.473 3.861-1.029 1.713q-.273.453-.295.891a1.45 1.45 0 0 0 .181.801q.207.381.639.639.431.26.853.257.427.016.792-.216.377-.226.648-.679l1.029-1.713zm-7.896 3.309 7.694 5.753-.911 1.218-7.694-5.753zm-2.176 2.753 7.114 6.456-4.255 4.688-1.002-.91 3.232-3.562-2.044-1.854-3.059 3.371-1.002-.91 3.059-3.371-2.063-1.872-3.232 3.562-1.003-.91zm-5.299 5.625 6.103 7.419-.947.778-8.889-2.322.391-.438 4.784 5.816-1.165.958-6.103-7.419.946-.778 8.892 2.386-.362.432-4.825-5.865zm-11.4 8.014a4.8 4.8 0 0 1 1.829-.623 4.7 4.7 0 0 1 1.822.14 4.9 4.9 0 0 1 1.646.868q.764.601 1.304 1.54.535.927.684 1.883a4.7 4.7 0 0 1-.086 1.865 4.4 4.4 0 0 1-.792 1.647 4.7 4.7 0 0 1-1.455 1.271q-.883.508-1.749.606a4.2 4.2 0 0 1-1.642-.11 3.4 3.4 0 0 1-1.298-.651l.863-1.241q.654.515 1.484.587.827.09 1.653-.387.827-.476 1.238-1.234a3.1 3.1 0 0 0 .369-1.657q-.053-.892-.587-1.819-.534-.928-1.287-1.432a3.1 3.1 0 0 0-1.618-.51q-.857-.013-1.683.463t-1.169 1.225q-.354.755-.236 1.58l-1.506.124a3.55 3.55 0 0 1 .087-1.45 4.2 4.2 0 0 1 .727-1.476q.519-.7 1.402-1.209m-4.784 2.764 3.497 8.948-5.897 2.304-.493-1.261 4.48-1.751-1.004-2.57-4.24 1.657-.493-1.261 4.24-1.657-1.014-2.594-4.48 1.75-.493-1.261zm-10.559 3.312a4.2 4.2 0 0 1 1.709-.061q.832.159 1.497.612.664.451 1.094 1.145l-1.13.825q-.544-.786-1.307-1.095a2.6 2.6 0 0 0-1.615-.106 2.4 2.4 0 0 0-.843.359 1.35 1.35 0 0 0-.47.589 1.12 1.12 0 0 0-.055.715q.122.514.482.747t.967.274l1.887.135q1.131.076 1.841.609.714.547.928 1.45.188.79-.061 1.472a2.7 2.7 0 0 1-.843 1.195q-.609.503-1.488.711a3.9 3.9 0 0 1-1.602.063 3.6 3.6 0 0 1-1.37-.523 3.2 3.2 0 0 1-1.011-1.019l1.102-.832q.452.675 1.137.936.672.265 1.437.083.465-.111.777-.357.316-.234.445-.583a1.24 1.24 0 0 0 .027-.722 1.26 1.26 0 0 0-.479-.734q-.372-.283-1.004-.319l-1.753-.127q-1.197-.073-1.913-.579-.714-.492-.937-1.434a2.43 2.43 0 0 1 .086-1.478 2.86 2.86 0 0 1 .89-1.219q.635-.508 1.575-.732m-10.029 2.603q.721-.042 1.306.246.586.302.955.848.368.548.411 1.281a2.35 2.35 0 0 1-.25 1.242 2.46 2.46 0 0 1-.85.928 2.5 2.5 0 0 1-1.28.411 2.3 2.3 0 0 1-1.256-.262 2.4 2.4 0 0 1-.914-.824 2.5 2.5 0 0 1-.406-1.203q-.043-.734.245-1.32.289-.585.822-.952a2.4 2.4 0 0 1 1.217-.395m-8.492-1.011-.757 8.283 1.836.168-.117 1.284-3.339-.305.874-9.567zm-3.399-.378-.214 1.075-3.128 2.244q-.92.659-1.447 1.066-.544.418-.809.76a1.7 1.7 0 0 0-.36.757q-.136.683.208 1.132.342.463 1 .593.682.136 1.254-.158.569-.28.904-.977l1.24.641q-.3.716-.863 1.169a3.15 3.15 0 0 1-1.284.639 3.5 3.5 0 0 1-1.502.017q-.9-.179-1.5-.653a2.5 2.5 0 0 1-.854-1.13q-.262-.67-.106-1.454.103-.518.404-.971.285-.443.798-.906.51-.451 1.276-.996l2.759-1.976-4.288-.852.252-1.265zm-10.235-2.52-.846 2.45 2.45.846-.42 1.218-2.45-.845-.838 2.425-1.219-.421.837-2.425-2.425-.838.42-1.218 2.426.837.846-2.45zm-9.54-4.167-2.129 3.773.272 6.209-1.493-.843-.194-5.01.528.298-4.377 2.431-1.494-.843 5.445-2.983 2.129-3.774zm-5.078-3.021-5.817 7.645-5.039-3.834.82-1.078 3.828 2.913 1.671-2.196-3.622-2.757.82-1.077 3.622 2.756 1.687-2.216-3.828-2.913.82-1.077zm-5.467-4.186-9.202 4.362-1.325-1.338 4.446-9.161 1.144 1.154-1.013 2.038 2.75 2.776 2.057-.985zm-4.47.472-2.115-2.134-2.374 4.748-.3-.302zm-2.295-7.506-7.74 5.69-2.07-2.815q-.572-.779-.717-1.585a2.6 2.6 0 0 1 .151-1.536q.288-.74 1.047-1.297.8-.59 1.669-.604a2.8 2.8 0 0 1 1.618.459l1.803-4.078 1.023 1.392-1.978 4.384-.121-1.144 1.505 2.047 2.909-2.139zm-4.901 1.715-1.184-1.61a1.9 1.9 0 0 0-.709-.616 1.46 1.46 0 0 0-.808-.142q-.431.046-.836.343-.406.298-.567.688-.179.388-.105.814.063.434.376.86l1.184 1.611zm-1.425-11.621q.427.796.496 1.636a4 4 0 0 1-.209 1.604 3.8 3.8 0 0 1-.827 1.35l-1.087-.881q.62-.727.724-1.543a2.6 2.6 0 0 0-.31-1.59 2.4 2.4 0 0 0-.562-.722 1.36 1.36 0 0 0-.69-.304 1.13 1.13 0 0 0-.705.129q-.466.25-.6.658-.132.407-.017 1.004l.352 1.859q.216 1.114-.119 1.936-.346.83-1.164 1.267-.716.384-1.44.318-.734-.06-1.37-.51-.64-.46-1.067-1.256a3.9 3.9 0 0 1-.47-1.533q-.073-.766.155-1.458.222-.705.727-1.238l1.085.852q-.536.609-.614 1.338-.084.718.288 1.412.225.42.543.659.307.245.677.281.352.031.705-.158.41-.219.588-.651t.051-1.051l-.325-1.728q-.235-1.176.07-1.998.296-.816 1.147-1.272.705-.378 1.452-.295.74.072 1.406.549.653.484 1.11 1.336m-4.347-10.985q.295 1.002.19 1.973a5 5 0 0 1-.557 1.804 5 5 0 0 1-1.211 1.458 5.1 5.1 0 0 1-1.788.916 5.1 5.1 0 0 1-1.998.197 4.78 4.78 0 0 1-3.24-1.788 5 5 0 0 1-.909-1.763 5 5 0 0 1-.19-1.973 4.6 4.6 0 0 1 .546-1.801 4.7 4.7 0 0 1 1.21-1.458 5.1 5.1 0 0 1 1.788-.915 5 5 0 0 1 2.002-.186q.971.105 1.803.559a4.8 4.8 0 0 1 1.446 1.214q.614.76.908 1.763m-1.336.393a3.4 3.4 0 0 0-.645-1.235 3.3 3.3 0 0 0-1.027-.841 3.6 3.6 0 0 0-1.292-.373q-.704-.061-1.434.153a3.8 3.8 0 0 0-1.275.644 3.6 3.6 0 0 0-.885 1.013 3.3 3.3 0 0 0-.421 1.266q-.086.67.126 1.388.21.717.649 1.247.435.517 1.035.825.602.307 1.293.372.687.054 1.417-.161a4 4 0 0 0 1.292-.635q.546-.43.885-1.013a3.4 3.4 0 0 0 .408-1.263 3.4 3.4 0 0 0-.126-1.387m-.527-6.746-9.532 1.202-.782-6.205 1.344-.17.591 4.696 2.866-.362-.527-4.183 1.343-.17.528 4.184 3.978-.502zm-.869-9.724-9.6-.374.247-6.327 1.353.053-.187 4.806 2.757.108.177-4.549 1.353.053-.177 4.548 2.783.109.188-4.806 1.353.052zm.287-6.88-4.238-3.935-5.211 2.205.302-1.701 4.361-1.845-.128.723-3.464-3.208.302-1.701 4.135 3.851 5.335-2.235-.302 1.701-4.47 1.865.141-.721 3.537 3.313zm1.727-8.918-9.126-3.001 1.091-3.32q.303-.918.875-1.504a2.6 2.6 0 0 1 1.343-.78q.765-.183 1.66.112.882.29 1.386.903.508.602.621 1.413.114.81-.188 1.73l-.617 1.874 3.43 1.128zm-4.241-2.996.628-1.911a1.9 1.9 0 0 0 .086-.922 1.54 1.54 0 0 0-.35-.753 1.7 1.7 0 0 0-.764-.482 1.63 1.63 0 0 0-.889-.062 1.43 1.43 0 0 0-.728.399q-.317.303-.478.793l-.629 1.91zm6.968-4.865-8.63-4.22 2.782-5.687 1.216.594-2.113 4.321 2.48 1.212 1.999-4.089 1.216.595-2 4.09 2.503 1.223 2.113-4.32 1.216.594zm3.517-6.883-7.974-5.356 1.948-2.9q.54-.804 1.249-1.213a2.6 2.6 0 0 1 1.496-.377q.794.021 1.575.545.825.555 1.133 1.367a2.8 2.8 0 0 1 .116 1.678l4.448.316-.964 1.434-4.794-.378 1.035-.5-1.417 2.108 2.998 2.013zm-3.273-4.03 1.115-1.66q.295-.439.34-.875.043-.435-.141-.809a1.7 1.7 0 0 0-.606-.67 1.63 1.63 0 0 0-.84-.3 1.35 1.35 0 0 0-.8.176 1.9 1.9 0 0 0-.683.645l-1.114 1.659zm8.052-2.907-7.398-6.127.97-1.172 7.399 6.128zm2.31-2.64-6.777-6.809 4.487-4.466.956.96-3.41 3.392 1.948 1.956 3.226-3.211.955.96-3.226 3.21 1.965 1.975 3.409-3.394.955.96zM61 51.98l-5.725-7.715.984-.73 8.762 2.763-.412.418-4.488-6.047 1.212-.9 5.725 7.715-.984.73-8.762-2.827.384-.413 4.526 6.099zm11.79-7.429a4.8 4.8 0 0 1-1.859.528 4.7 4.7 0 0 1-1.813-.233 5 5 0 0 1-1.599-.95 5.3 5.3 0 0 1-1.224-1.606 5.4 5.4 0 0 1-.586-1.916 4.7 4.7 0 0 1 .182-1.858 4.45 4.45 0 0 1 .875-1.604q.6-.726 1.519-1.195.907-.462 1.778-.515a4.2 4.2 0 0 1 1.633.194q.746.242 1.263.717l-.925 1.195a2.73 2.73 0 0 0-1.453-.663q-.82-.132-1.67.301-.85.435-1.3 1.17-.45.736-.453 1.636.007.893.493 1.847t1.211 1.495q.731.525 1.59.593.855.057 1.705-.377.85-.432 1.23-1.163.393-.735.317-1.565l1.51-.047q.075.687-.161 1.443a4.2 4.2 0 0 1-.802 1.437q-.555.674-1.462 1.136m4.918-2.516-3.045-9.111 6.004-2.007.43 1.284-4.562 1.524.875 2.618 4.317-1.443.429 1.284-4.317 1.443.883 2.641 4.561-1.524.43 1.284zm10.712-2.776a4.2 4.2 0 0 1-1.71-.026 4 4 0 0 1-1.463-.687 3.8 3.8 0 0 1-1.034-1.2l1.17-.766q.504.812 1.25 1.16a2.6 2.6 0 0 0 1.607.188 2.4 2.4 0 0 0 .86-.315q.35-.235.5-.564a1.12 1.12 0 0 0 .091-.712q-.096-.52-.443-.77-.349-.251-.952-.324l-1.878-.23q-1.125-.135-1.807-.703a2.5 2.5 0 0 1-.853-1.495q-.147-.8.136-1.468.282-.68.903-1.15.634-.47 1.522-.634a3.9 3.9 0 0 1 1.603.02q.751.163 1.342.591.603.427.957 1.07l-1.142.774q-.417-.698-1.087-.993a2.36 2.36 0 0 0-1.432-.156 2 2 0 0 0-.794.317 1.26 1.26 0 0 0-.474.56 1.25 1.25 0 0 0-.064.72q.084.455.441.757.357.3.986.37l1.744.215q1.192.135 1.882.676.688.53.862 1.48a2.44 2.44 0 0 1-.161 1.473 2.86 2.86 0 0 1-.951 1.171q-.66.475-1.611.651"/><path fill="#f0f3ff" d="M56.737 98c0-22.789 18.474-41.263 41.263-41.263S139.263 75.21 139.263 98 120.789 139.263 98 139.263 56.737 120.789 56.737 98"/><path fill="url(#b)" d="m105.878 94.015-17.819 17.818q-.515.516-1.172.492-.656-.023-1.172-.539t-.516-1.196.516-1.196l17.771-17.77h-8.3q-.717 0-1.202-.483a1.62 1.62 0 0 1-.485-1.196q0-.712.485-1.206a1.62 1.62 0 0 1 1.203-.492h12.379q.717 0 1.202.485.486.486.486 1.203v12.379q0 .717-.483 1.203-.483.485-1.196.485t-1.205-.485a1.62 1.62 0 0 1-.492-1.203z"/><defs><linearGradient id="a" x1="98" x2="-19.077" y1="-67.846" y2="180.351" gradientUnits="userSpaceOnUse"><stop stop-color="#1d1ded"/><stop offset="1" stop-color="#1d9aed"/></linearGradient><linearGradient id="b" x1="97.226" x2="82.834" y1="79.912" y2="110.392" gradientUnits="userSpaceOnUse"><stop stop-color="#1d1ded"/><stop offset="1" stop-color="#1d9aed"/></linearGradient></defs></svg>