<svg width="196" height="196" viewBox="0 0 196 196" fill="none" xmlns="http://www.w3.org/2000/svg">
<path d="M102.425 9.00781C104.241 11.0926 107.377 11.3745 109.536 9.64746L114.798 5.43848L118.244 11.2275C119.659 13.6033 122.694 14.441 125.127 13.127L131.055 9.92578L133.412 16.2373C134.38 18.8272 137.218 20.1934 139.846 19.335L146.25 17.2432L147.442 23.874C147.932 26.5953 150.48 28.4467 153.22 28.0713L159.895 27.1562L159.884 33.8936C159.879 36.6585 162.056 38.935 164.818 39.0547L171.55 39.3467L170.336 45.9736C169.838 48.6932 171.573 51.3215 174.27 51.9326L180.841 53.4219L178.463 59.7256C177.487 62.3126 178.725 65.2093 181.27 66.292L187.469 68.9297L184.004 74.708C182.582 77.0793 183.283 80.1504 185.593 81.6699L191.222 85.3721L186.781 90.4385C184.959 92.5178 185.1 95.6647 187.102 97.5723L191.979 102.221L186.704 106.413C184.54 108.134 184.117 111.255 185.746 113.489L189.715 118.934L183.776 122.116C181.34 123.423 180.367 126.418 181.57 128.907L184.503 134.973L178.092 137.045C175.461 137.895 173.968 140.669 174.708 143.333L176.511 149.824L169.833 150.719C167.093 151.086 165.129 153.548 165.381 156.301L165.996 163.011L159.266 162.697C156.504 162.569 154.132 164.641 153.889 167.396L153.295 174.106L146.729 172.598C144.034 171.978 141.33 173.593 140.599 176.26L138.816 182.757L132.626 180.1C130.085 179.009 127.136 180.115 125.94 182.608L123.027 188.683L117.41 184.963C115.105 183.436 112.005 183.998 110.384 186.237L106.433 191.694L101.57 187.031C99.5748 185.117 96.4252 185.117 94.4297 187.031L89.5674 191.694L85.6162 186.237C83.9946 183.998 80.895 183.436 78.5898 184.963L72.9727 188.683L70.0596 182.608C68.8638 180.115 65.9147 179.009 63.374 180.1L57.1836 182.757L55.4014 176.26C54.67 173.593 51.9661 171.978 49.2715 172.598L42.7051 174.106L42.1113 167.396C41.8677 164.641 39.4963 162.569 36.7344 162.697L30.0039 163.011L30.6191 156.301C30.871 153.548 28.9072 151.086 26.167 150.719L19.4893 149.824L21.292 143.333C22.0317 140.669 20.539 137.895 17.9082 137.045L11.4971 134.973L14.4297 128.907C15.6331 126.418 14.6603 123.423 12.2236 122.116L6.28516 118.934L10.2539 113.489C11.8825 111.255 11.4601 108.134 9.2959 106.413L4.02148 102.221L8.89844 97.5723C10.8999 95.6647 11.0412 92.5178 9.21875 90.4385L4.77832 85.3721L10.4072 81.6699C12.717 80.1504 13.4178 77.0793 11.9961 74.708L8.53125 68.9297L14.7305 66.292C17.2746 65.2093 18.5127 62.3127 17.5371 59.7256L15.1592 53.4219L21.7305 51.9326C24.4269 51.3215 26.1619 48.6932 25.6641 45.9736L24.4502 39.3467L31.1816 39.0547C33.9439 38.935 36.1205 36.6584 36.1162 33.8936L36.1055 27.1562L42.7803 28.0713C45.5196 28.4467 48.0682 26.5953 48.5576 23.874L49.75 17.2432L56.1543 19.335C58.7824 20.1934 61.6203 18.8272 62.5879 16.2373L64.9453 9.92578L70.873 13.127C73.3058 14.441 76.3415 13.6033 77.7559 11.2275L81.2021 5.43848L86.4639 9.64746C88.6228 11.3745 91.7594 11.0926 93.5752 9.00781L98 3.92676L102.425 9.00781Z" fill="url(#paint0_linear_8109_80840)" stroke="white" stroke-width="5.15789"/>
<circle cx="97.3553" cy="97.3554" r="77.3684" stroke="#F0F3FF" stroke-width="1.28947"/>
<path d="M101.797 38.3374L100.107 27.6525L101.846 27.8475L103.15 37.0803L102.718 37.0319L106.118 28.3265L107.829 28.5184L109.216 37.7605L108.77 37.7106L112.1 28.9974L113.825 29.1909L109.825 39.2376L107.974 39.0301L106.558 29.9256L107.045 29.9802L103.634 38.5433L101.797 38.3374ZM112.373 39.5528L118.977 30.6854L120.929 31.2932L121.329 42.3422L119.645 41.8176L119.578 39.3481L115.528 38.0866L114.058 40.0773L112.373 39.5528ZM116.42 36.8246L119.534 37.7947L119.393 32.0321L119.834 32.1695L116.42 36.8246ZM123.457 43.416L127.245 35.296L124.733 34.1241L125.354 32.7919L131.825 35.8103L131.203 37.1425L128.729 35.9884L124.941 44.1084L123.457 43.416ZM132.004 48.5969C131.392 48.1858 130.898 47.6909 130.522 47.1124C130.153 46.539 129.908 45.9247 129.786 45.2694C129.677 44.6115 129.696 43.9385 129.844 43.2504C129.991 42.5624 130.283 41.8929 130.72 41.2421C131.152 40.599 131.655 40.0765 132.228 39.6747C132.815 39.2703 133.434 39.0006 134.087 38.8656C134.745 38.7229 135.407 38.7174 136.071 38.8491C136.741 38.9731 137.386 39.2432 138.006 39.6595C138.618 40.0706 139.094 40.542 139.434 41.0739C139.782 41.6109 140.008 42.1618 140.112 42.7264C140.221 43.2834 140.217 43.8088 140.099 44.3029L138.476 44.0566C138.603 43.4668 138.557 42.8907 138.339 42.3282C138.134 41.7632 137.744 41.2881 137.171 40.903C136.598 40.518 135.999 40.3127 135.375 40.2873C134.752 40.2619 134.154 40.4061 133.584 40.7199C133.021 41.039 132.524 41.5201 132.092 42.1632C131.66 42.8062 131.4 43.4525 131.312 44.1019C131.238 44.7488 131.33 45.3562 131.59 45.924C131.854 46.484 132.273 46.9566 132.847 47.3417C133.42 47.7267 134.004 47.9112 134.6 47.8952C135.203 47.8843 135.754 47.7088 136.252 47.3689L137.094 48.7774C136.686 49.0659 136.201 49.2687 135.639 49.3859C135.077 49.503 134.482 49.5023 133.853 49.3837C133.232 49.2702 132.616 49.008 132.004 48.5969ZM136.965 51.9576L144.227 44.4707L145.413 45.6209L142.216 48.9171L145.683 52.2799L148.88 48.9837L150.056 50.1241L142.794 57.611L141.618 56.4705L144.659 53.3351L141.192 49.9723L138.151 53.1077L136.965 51.9576ZM148.301 65.5008C147.893 64.8641 147.627 64.1977 147.503 63.5016C147.383 62.8133 147.394 62.13 147.536 61.4517C147.683 60.7813 147.956 60.152 148.356 59.5638C148.76 58.9835 149.288 58.4845 149.94 58.0667C150.593 57.6489 151.267 57.3778 151.963 57.2534C152.672 57.1318 153.358 57.147 154.021 57.299C154.691 57.446 155.313 57.7241 155.885 58.1333C156.465 58.5375 156.959 59.058 157.367 59.6946C157.78 60.3391 158.046 61.0055 158.165 61.6938C158.297 62.3849 158.29 63.0657 158.143 63.7361C158.001 64.4144 157.728 65.0437 157.324 65.624C156.92 66.2043 156.391 66.7033 155.739 67.1211C155.087 67.5389 154.41 67.806 153.709 67.9226C153.013 68.047 152.329 68.0357 151.659 67.8888C150.988 67.7418 150.363 67.4662 149.783 67.062C149.203 66.6578 148.709 66.1374 148.301 65.5008ZM149.574 64.6853C149.866 65.1412 150.215 65.5049 150.622 65.7765C151.034 66.0559 151.476 66.244 151.948 66.3407C152.427 66.4323 152.914 66.4309 153.408 66.3365C153.909 66.2369 154.392 66.0387 154.856 65.7417C155.319 65.4447 155.697 65.0918 155.99 64.6829C156.282 64.2741 156.487 63.8325 156.604 63.3583C156.722 62.8841 156.74 62.4015 156.658 61.9107C156.582 61.4277 156.397 60.9583 156.105 60.5025C155.814 60.0466 155.462 59.679 155.05 59.3996C154.643 59.128 154.2 58.9464 153.72 58.8547C153.24 58.763 152.754 58.7644 152.26 58.8589C151.771 58.9613 151.295 59.1609 150.831 59.4579C150.368 59.7549 149.983 60.1064 149.678 60.5124C149.386 60.9213 149.181 61.3628 149.063 61.8371C148.954 62.3063 148.94 62.7863 149.021 63.2771C149.103 63.7679 149.287 64.2373 149.574 64.6853ZM153.442 75.2534C153.153 74.5344 153.048 73.8325 153.126 73.1479C153.207 72.4719 153.447 71.8677 153.847 71.3353C154.251 70.8116 154.79 70.4144 155.466 70.1435L161.794 67.607L162.409 69.1404L156.145 71.6509C155.721 71.8211 155.381 72.0631 155.124 72.3769C154.871 72.6995 154.718 73.0575 154.665 73.451C154.615 73.8531 154.675 74.2664 154.845 74.6909C155.019 75.1241 155.261 75.4645 155.571 75.7121C155.885 75.9684 156.243 76.1215 156.645 76.1715C157.051 76.2301 157.466 76.1744 157.89 76.0043L164.154 73.4938L164.763 75.0142L158.435 77.5507C157.759 77.8216 157.094 77.9069 156.441 77.8069C155.787 77.7068 155.196 77.436 154.667 76.9944C154.142 76.5615 153.733 75.9811 153.442 75.2534ZM155.678 80.8567L165.865 78.6158L166.68 82.3212C166.83 83.0049 166.835 83.6345 166.694 84.2103C166.562 84.784 166.287 85.2698 165.868 85.6678C165.46 86.0729 164.923 86.3486 164.258 86.495C163.556 86.6494 162.915 86.604 162.336 86.3588C161.758 86.1227 161.29 85.7335 160.932 85.1911L157.347 88.4452L156.944 86.613L160.838 83.1333L160.454 84.3215L159.861 81.6279L156.033 82.4701L155.678 80.8567ZM161.297 81.3121L161.763 83.4314C161.846 83.8051 161.99 84.1127 162.196 84.354C162.402 84.5954 162.648 84.761 162.936 84.8507C163.234 84.9475 163.561 84.9568 163.917 84.8786C164.272 84.8004 164.56 84.6557 164.782 84.4446C165.014 84.2406 165.168 83.9868 165.245 83.6833C165.33 83.3777 165.332 83.0381 165.25 82.6644L164.784 80.5451L161.297 81.3121ZM157.741 92.2466L168.167 91.9526L168.358 98.7399L166.889 98.7814L166.744 93.6454L163.609 93.7338L163.738 98.31L162.269 98.3514L162.14 93.7752L157.788 93.898L157.741 92.2466ZM157.166 104.261C157.261 103.492 157.507 102.827 157.905 102.265C158.302 101.712 158.805 101.298 159.412 101.025C160.018 100.761 160.682 100.673 161.405 100.762L168.172 101.594L167.97 103.234L161.273 102.41C160.819 102.355 160.404 102.402 160.028 102.554C159.651 102.714 159.344 102.954 159.107 103.273C158.869 103.601 158.723 103.992 158.667 104.446C158.61 104.909 158.658 105.324 158.81 105.691C158.961 106.066 159.201 106.373 159.529 106.611C159.856 106.858 160.247 107.01 160.7 107.065L167.398 107.889L167.198 109.514L160.431 108.683C159.709 108.594 159.085 108.348 158.561 107.945C158.037 107.542 157.65 107.02 157.4 106.378C157.148 105.745 157.07 105.039 157.166 104.261ZM156.436 110.253L166.48 113.064L166.035 114.655L157.406 112.24L156.191 116.581L154.775 116.185L156.436 110.253ZM154.273 117.469L163.876 121.539L163.232 123.06L154.982 119.564L153.223 123.715L151.87 123.141L154.273 117.469ZM148.477 128.788L159.205 131.5L158.218 132.98L149.133 130.555L149.327 130.264L155.065 137.708L154.078 139.188L147.452 130.326L148.477 128.788ZM144.632 134.341L152.625 141.042L151.564 142.308L143.571 135.607L144.632 134.341ZM142.086 137.172L149.195 144.804L146.695 147.132C145.903 147.87 145.067 148.349 144.187 148.569C143.307 148.802 142.44 148.781 141.584 148.506C140.729 148.231 139.948 147.715 139.242 146.957C138.542 146.206 138.083 145.39 137.863 144.511C137.65 143.638 137.687 142.768 137.975 141.9C138.257 141.038 138.794 140.238 139.586 139.5L142.086 137.172ZM141.879 139.374L140.568 140.595C140.028 141.097 139.665 141.646 139.479 142.24C139.286 142.841 139.271 143.448 139.434 144.061C139.597 144.675 139.94 145.261 140.461 145.821C140.983 146.381 141.544 146.758 142.145 146.951C142.745 147.157 143.348 147.189 143.954 147.045C144.56 146.901 145.133 146.578 145.672 146.076L146.984 144.855L141.879 139.374ZM134.397 144.102L140.22 152.755L134.517 156.593L133.696 155.373L138.029 152.458L136.356 149.972L132.256 152.731L131.435 151.511L135.536 148.753L133.847 146.244L129.515 149.159L128.694 147.939L134.397 144.102ZM122.635 150.525C123.327 150.218 124.026 150.057 124.733 150.04C125.431 150.026 126.105 150.141 126.754 150.385C127.394 150.632 127.974 150.997 128.495 151.481C129.007 151.969 129.42 152.567 129.734 153.275C130.048 153.984 130.213 154.691 130.23 155.398C130.242 156.118 130.123 156.793 129.872 157.425C129.625 158.065 129.256 158.637 128.764 159.141C128.276 159.653 127.687 160.062 126.996 160.368C126.296 160.678 125.597 160.84 124.898 160.853C124.195 160.879 123.524 160.768 122.883 160.521C122.234 160.277 121.654 159.912 121.142 159.424C120.63 158.936 120.217 158.338 119.903 157.63C119.589 156.922 119.428 156.212 119.42 155.502C119.402 154.795 119.517 154.121 119.765 153.481C120.012 152.84 120.379 152.264 120.867 151.752C121.355 151.24 121.944 150.831 122.635 150.525ZM123.248 151.907C122.753 152.126 122.34 152.416 122.01 152.777C121.671 153.141 121.418 153.549 121.251 154.001C121.087 154.462 121.015 154.943 121.033 155.445C121.055 155.956 121.178 156.463 121.401 156.967C121.624 157.47 121.915 157.897 122.275 158.249C122.634 158.6 123.04 158.869 123.491 159.057C123.941 159.246 124.416 159.337 124.913 159.331C125.402 159.328 125.894 159.218 126.389 158.998C126.884 158.779 127.301 158.487 127.64 158.123C127.97 157.762 128.217 157.352 128.38 156.891C128.544 156.431 128.617 155.95 128.598 155.447C128.571 154.949 128.446 154.448 128.223 153.945C128 153.441 127.711 153.008 127.356 152.644C126.997 152.293 126.592 152.023 126.141 151.835C125.694 151.656 125.221 151.569 124.724 151.575C124.226 151.581 123.734 151.692 123.248 151.907ZM110.685 155.748C111.197 155.646 111.678 155.67 112.126 155.819C112.576 155.977 112.96 156.234 113.278 156.589C113.596 156.945 113.807 157.383 113.91 157.905C114.007 158.39 113.979 158.848 113.826 159.278C113.666 159.719 113.408 160.094 113.05 160.403C112.695 160.721 112.256 160.931 111.734 161.035C111.24 161.133 110.777 161.101 110.345 160.94C109.915 160.787 109.547 160.537 109.24 160.189C108.933 159.84 108.727 159.429 108.624 158.955C108.52 158.433 108.543 157.948 108.692 157.5C108.84 157.052 109.088 156.669 109.434 156.353C109.783 156.046 110.199 155.845 110.685 155.748ZM100.84 155.69L103.383 166.205L101.634 166.15L99.5925 157.052L100.026 157.065L97.3379 166.016L95.6167 165.962L93.4915 156.861L93.9393 156.875L91.3208 165.828L89.5856 165.774L92.7655 155.438L94.6266 155.496L96.7702 164.457L96.2804 164.442L98.9925 155.632L100.84 155.69ZM90.2 155.329L84.3254 164.695L82.3316 164.245L81.0502 153.264L82.7709 153.652L83.0345 156.108L87.1724 157.042L88.4793 154.94L90.2 155.329ZM86.3844 158.371L83.2024 157.653L83.8029 163.386L83.3522 163.284L86.3844 158.371ZM78.8462 152.35L75.6798 160.732L78.2729 161.711L77.7534 163.086L71.0741 160.563L71.5936 159.188L74.1475 160.153L77.3139 151.771L78.8462 152.35ZM69.9192 147.851C70.5623 148.212 71.0943 148.666 71.5154 149.212C71.9284 149.754 72.2219 150.347 72.396 150.991C72.5574 151.638 72.5923 152.31 72.5005 153.008C72.4088 153.705 72.1711 154.396 71.7876 155.08C71.4086 155.755 70.9493 156.316 70.4099 156.763C69.8578 157.213 69.2618 157.531 68.6219 157.718C67.9774 157.913 67.3186 157.972 66.6453 157.894C65.9675 157.824 65.303 157.606 64.6518 157.241C64.0088 156.88 63.4966 156.448 63.1152 155.945C62.7257 155.438 62.4563 154.907 62.3073 154.352C62.1536 153.806 62.1159 153.282 62.1941 152.78L63.8308 152.896C63.7522 153.494 63.8441 154.064 64.1066 154.607C64.3563 155.154 64.7824 155.596 65.3848 155.934C65.9871 156.272 66.6002 156.429 67.224 156.404C67.8478 156.38 68.4315 156.188 68.9751 155.83C69.5105 155.466 69.9678 154.947 70.3468 154.271C70.7258 153.596 70.933 152.931 70.9683 152.276C70.991 151.626 70.8502 151.028 70.5461 150.482C70.2373 149.945 69.7818 149.508 69.1794 149.17C68.5771 148.832 67.9798 148.695 67.3875 148.759C66.7872 148.818 66.2523 149.037 65.783 149.416L64.8312 148.079C65.2142 147.759 65.6811 147.518 66.2321 147.356C66.783 147.194 67.3765 147.147 68.0127 147.215C68.6406 147.279 69.2761 147.491 69.9192 147.851ZM64.7066 144.899L58.0625 152.939L56.7891 151.887L59.7142 148.347L55.991 145.27L53.0658 148.81L51.8032 147.767L58.4472 139.727L59.7099 140.77L56.9274 144.137L60.6506 147.214L63.4331 143.847L64.7066 144.899ZM52.335 132.294C52.7922 132.896 53.1105 133.539 53.2901 134.223C53.4639 134.899 53.5072 135.581 53.4198 136.269C53.3268 136.949 53.1048 137.598 52.7538 138.216C52.3971 138.827 51.9103 139.366 51.2933 139.835C50.6764 140.303 50.0259 140.627 49.3419 140.807C48.6448 140.984 47.9599 141.024 47.2873 140.925C46.6073 140.832 45.9657 140.605 45.3625 140.242C44.7518 139.886 44.2179 139.406 43.7607 138.804C43.2979 138.195 42.9795 137.552 42.8056 136.875C42.6187 136.197 42.5717 135.517 42.6647 134.837C42.7521 134.15 42.9741 133.501 43.3308 132.89C43.6874 132.28 44.1742 131.74 44.7912 131.271C45.4082 130.803 46.0615 130.483 46.7511 130.311C47.4351 130.131 48.1172 130.088 48.7972 130.181C49.4772 130.274 50.1226 130.499 50.7332 130.855C51.3439 131.212 51.8778 131.691 52.335 132.294ZM51.1308 133.208C50.8034 132.777 50.4262 132.442 49.9992 132.204C49.5666 131.958 49.1111 131.806 48.6329 131.747C48.1472 131.694 47.6621 131.734 47.1776 131.868C46.6856 132.007 46.2203 132.243 45.7818 132.576C45.3432 132.909 44.9945 133.291 44.7357 133.722C44.477 134.153 44.3079 134.609 44.2287 135.091C44.1494 135.573 44.17 136.056 44.2905 136.539C44.4053 137.014 44.6264 137.467 44.9537 137.898C45.2811 138.329 45.6611 138.668 46.0938 138.913C46.5208 139.152 46.9771 139.297 47.4628 139.351C47.9485 139.404 48.4336 139.363 48.9181 139.23C49.397 139.089 49.8557 138.852 50.2943 138.519C50.7329 138.186 51.0881 137.805 51.3599 137.376C51.6187 136.945 51.7878 136.488 51.867 136.006C51.9389 135.53 51.9146 135.05 51.7941 134.568C51.6736 134.085 51.4525 133.632 51.1308 133.208ZM46.4445 122.975C46.7872 123.67 46.9463 124.361 46.9217 125.05C46.893 125.73 46.6998 126.351 46.342 126.913C45.98 127.466 45.4726 127.904 44.8197 128.226L38.7052 131.242L37.9744 129.76L44.0261 126.775C44.4362 126.573 44.757 126.305 44.9884 125.973C45.2156 125.632 45.3407 125.263 45.3637 124.866C45.3826 124.462 45.2908 124.054 45.0885 123.644C44.8821 123.225 44.6146 122.905 44.286 122.682C43.9533 122.45 43.5846 122.325 43.1798 122.306C42.7709 122.279 42.3614 122.367 41.9512 122.569L35.8995 125.554L35.1749 124.085L41.2893 121.069C41.9422 120.747 42.5983 120.611 43.2575 120.66C43.9168 120.71 44.527 120.934 45.0884 121.334C45.6456 121.725 46.0977 122.272 46.4445 122.975ZM43.7796 117.561L33.8059 120.612L32.696 116.984C32.4912 116.315 32.436 115.688 32.5303 115.102C32.6156 114.52 32.8511 114.014 33.2368 113.583C33.6108 113.147 34.1235 112.829 34.775 112.63C35.4623 112.419 36.1046 112.413 36.7019 112.611C37.2966 112.8 37.7942 113.151 38.1948 113.662L41.5066 110.131L42.0554 111.925L38.4539 115.706L38.741 114.491L39.5478 117.128L43.2964 115.981L43.7796 117.561ZM38.1421 117.558L37.5073 115.483C37.3954 115.117 37.2271 114.822 37.0024 114.598C36.7776 114.374 36.5185 114.229 36.2249 114.163C35.9197 114.09 35.593 114.107 35.2449 114.213C34.8969 114.32 34.6211 114.487 34.4176 114.715C34.2024 114.937 34.0689 115.203 34.0169 115.511C33.956 115.823 33.9816 116.162 34.0935 116.527L34.7283 118.603L38.1421 117.558ZM40.8239 106.372L30.4549 107.498L29.722 100.747L31.1834 100.589L31.738 105.697L34.8557 105.358L34.3616 100.807L35.823 100.648L36.3171 105.2L40.6457 104.73L40.8239 106.372ZM40.4506 94.3523C40.4158 95.1262 40.2216 95.8088 39.868 96.4002C39.5148 96.9822 39.0461 97.4329 38.4618 97.7523C37.8779 98.0624 37.2224 98.201 36.4951 98.1683L29.684 97.8618L29.7583 96.2115L36.4994 96.5148C36.9563 96.5354 37.3663 96.4557 37.7294 96.2759C38.093 96.0867 38.3804 95.824 38.5917 95.4879C38.8035 95.1424 38.9196 94.7412 38.9402 94.2843C38.9612 93.8181 38.8815 93.4081 38.7012 93.0543C38.5214 92.6912 38.2587 92.4038 37.9132 92.192C37.5681 91.9709 37.1671 91.8501 36.7103 91.8296L29.9691 91.5262L30.0427 89.8899L36.8538 90.1964C37.5811 90.2291 38.2216 90.4261 38.7752 90.7874C39.3289 91.1486 39.7552 91.6396 40.0543 92.2603C40.3538 92.8718 40.4859 93.5691 40.4506 94.3523ZM40.7108 88.3216L30.4703 86.3423L30.7838 84.7203L39.581 86.4207L40.4365 81.9946L41.8798 82.2735L40.7108 88.3216ZM42.2786 80.9538L32.3852 77.6513L32.9083 76.0843L41.4073 78.9213L42.8346 74.6453L44.229 75.1107L42.2786 80.9538ZM47.1653 69.2117L36.2532 67.376L37.1169 65.8218L46.3687 67.5037L46.1987 67.8097L39.8779 60.8535L40.7416 59.2993L48.063 67.5964L47.1653 69.2117ZM50.5552 63.3705L42.0909 57.2762L43.0562 55.9355L51.5204 62.0299L50.5552 63.3705ZM52.8807 60.3549L45.1816 53.3187L47.486 50.7971C48.2164 49.9979 49.0111 49.4535 49.8701 49.1638C50.7285 48.8609 51.595 48.812 52.4697 49.0171C53.3443 49.2222 54.164 49.6741 54.9288 50.373C55.6866 51.0656 56.2104 51.8414 56.5001 52.7004C56.7829 53.5531 56.8155 54.4237 56.5978 55.3121C56.3864 56.1937 55.9156 57.0341 55.1852 57.8333L52.8807 60.3549ZM52.9101 58.1437L54.119 56.8209C54.6164 56.2766 54.934 55.7008 55.0718 55.0934C55.216 54.4792 55.1821 53.8729 54.9702 53.2747C54.7583 52.6764 54.3698 52.1191 53.8049 51.6028C53.2399 51.0865 52.6503 50.7563 52.0361 50.6122C51.4212 50.4549 50.8175 50.4721 50.225 50.664C49.6324 50.8558 49.0874 51.2238 48.59 51.7681L47.3811 53.0909L52.9101 58.1437ZM59.9891 52.8304L53.505 44.6609L58.8893 40.3875L59.8031 41.5389L55.7129 44.7853L57.5754 47.132L61.4463 44.0597L62.3602 45.2111L58.4893 48.2834L60.3692 50.652L64.4595 47.4056L65.3733 48.557L59.9891 52.8304ZM71.2127 45.5047C70.5476 45.864 69.8632 46.0798 69.1598 46.1522C68.4645 46.2201 67.7839 46.158 67.1181 45.9661C66.4604 45.7697 65.8531 45.4506 65.2963 45.0089C64.7476 44.5626 64.2893 43.9987 63.9211 43.3171C63.553 42.6355 63.3327 41.943 63.2604 41.2395C63.1918 40.5234 63.258 39.8406 63.4588 39.1912C63.6552 38.5335 63.9787 37.9344 64.4293 37.394C64.8755 36.8454 65.4312 36.3914 66.0964 36.0322C66.7698 35.6685 67.4541 35.4526 68.1494 35.3847C68.8484 35.3042 69.5268 35.3621 70.1844 35.5585C70.8503 35.7504 71.4576 36.0695 72.0062 36.5157C72.5548 36.9619 73.0132 37.5259 73.3814 38.2075C73.7495 38.8891 73.9657 39.5838 74.0298 40.2917C74.1021 40.9952 74.0401 41.6758 73.8437 42.3334C73.6473 42.9911 73.326 43.5942 72.8798 44.1429C72.4336 44.6915 71.8779 45.1455 71.2127 45.5047ZM70.4942 44.1744C70.9705 43.9171 71.3592 43.5958 71.6602 43.2105C71.9694 42.8207 72.1898 42.394 72.3213 41.9305C72.4484 41.4588 72.4832 40.9732 72.4257 40.4739C72.3637 39.9664 72.2019 39.4704 71.9402 38.9859C71.6785 38.5014 71.3546 38.0982 70.9686 37.7763C70.5826 37.4544 70.1575 37.2172 69.6933 37.0649C69.2291 36.9125 68.7493 36.8587 68.2537 36.9036C67.7664 36.9441 67.2846 37.0929 66.8083 37.3502C66.332 37.6075 65.9392 37.931 65.63 38.3208C65.3289 38.7061 65.1149 39.1347 64.9878 39.6064C64.8607 40.0781 64.8259 40.5637 64.8835 41.063C64.9492 41.5579 65.1129 42.0475 65.3746 42.5321C65.6363 43.0166 65.9583 43.4261 66.3405 43.7606C66.7266 44.0825 67.1517 44.3197 67.6158 44.472C68.0756 44.6162 68.5532 44.6658 69.0488 44.621C69.5443 44.5761 70.0261 44.4272 70.4942 44.1744ZM82.7109 39.3417C82.208 39.4841 81.7272 39.4989 81.2685 39.3863C80.8072 39.2646 80.4039 39.0393 80.0586 38.7102C79.7132 38.3812 79.4681 37.9607 79.3232 37.4489C79.1885 36.9729 79.18 36.5145 79.2977 36.0738C79.4219 35.6216 79.6498 35.2272 79.9814 34.8909C80.3104 34.5455 80.7309 34.3004 81.2427 34.1555C81.7277 34.0182 82.1918 34.0129 82.6351 34.1397C83.0758 34.2574 83.4631 34.4776 83.7969 34.8002C84.1307 35.1228 84.3682 35.5163 84.5094 35.9807C84.6543 36.4926 84.6704 36.9779 84.5578 37.4366C84.4451 37.8953 84.2288 38.2961 83.9087 38.6389C83.5861 38.9727 83.1868 39.207 82.7109 39.3417Z" fill="white"/>
<path d="M47 98C47 69.8335 69.8335 47 98 47C126.167 47 149 69.8335 149 98C149 126.167 126.167 149 98 149C69.8335 149 47 126.167 47 98Z" fill="white"/>
<path d="M94.2614 106.084L105.563 98.8397C106.103 98.492 106.374 98.009 106.374 97.3908C106.374 96.7726 106.103 96.2897 105.563 95.942L94.2614 88.6976C93.6818 88.3113 93.0926 88.2823 92.4938 88.6107C91.8949 88.9391 91.5955 89.451 91.5955 90.1465V104.635C91.5955 105.331 91.8949 105.843 92.4938 106.171C93.0926 106.499 93.6818 106.47 94.2614 106.084ZM97.3909 120.573C94.1841 120.573 91.1705 119.964 88.35 118.747C85.5296 117.53 83.0762 115.878 80.9898 113.792C78.9034 111.706 77.2517 109.252 76.0347 106.432C74.8176 103.611 74.2091 100.598 74.2091 97.3908C74.2091 94.184 74.8176 91.1704 76.0347 88.3499C77.2517 85.5294 78.9034 83.076 80.9898 80.9897C83.0762 78.9033 85.5296 77.2516 88.35 76.0346C91.1705 74.8175 94.1841 74.209 97.3909 74.209C100.598 74.209 103.611 74.8175 106.432 76.0346C109.252 77.2516 111.706 78.9033 113.792 80.9897C115.878 83.076 117.53 85.5294 118.747 88.3499C119.964 91.1704 120.573 94.184 120.573 97.3908C120.573 100.598 119.964 103.611 118.747 106.432C117.53 109.252 115.878 111.706 113.792 113.792C111.706 115.878 109.252 117.53 106.432 118.747C103.611 119.964 100.598 120.573 97.3909 120.573Z" fill="url(#paint1_linear_8109_80840)"/>
<defs>
<linearGradient id="paint0_linear_8109_80840" x1="98" y1="-67.8462" x2="-19.0769" y2="180.351" gradientUnits="userSpaceOnUse">
<stop stop-color="#1D1DED"/>
<stop offset="1" stop-color="#1D9AED"/>
</linearGradient>
<linearGradient id="paint1_linear_8109_80840" x1="97.3909" y1="58.16" x2="69.6965" y2="116.871" gradientUnits="userSpaceOnUse">
<stop stop-color="#1D1DED"/>
<stop offset="1" stop-color="#1D9AED"/>
</linearGradient>
</defs>
</svg>
