<svg xmlns="http://www.w3.org/2000/svg" width="152" height="152" fill="none" viewBox="0 0 152 152"><path fill="url(#a)" stroke="#f0f3ff" stroke-width="4" d="M79.432 6.985a4 4 0 0 0 5.514.496l4.08-3.263L91.7 8.707a4 4 0 0 0 5.338 1.474l4.598-2.484 1.828 4.895a4 4 0 0 0 4.989 2.402l4.966-1.622.926 5.143a4 4 0 0 0 4.479 3.255l5.177-.71-.009 5.225a4 4 0 0 0 3.827 4.002l5.22.227-.94 5.14a4 4 0 0 0 3.049 4.62l5.096 1.155-1.843 4.888a4 4 0 0 0 2.176 5.093l4.808 2.046-2.687 4.48a4 4 0 0 0 1.233 5.4l4.365 2.871-3.444 3.93a4 4 0 0 0 .248 5.531l3.782 3.605-4.09 3.251a4 4 0 0 0-.743 5.488l3.078 4.222-4.605 2.468a4 4 0 0 0-1.711 5.267l2.274 4.704-4.972 1.606a4 4 0 0 0-2.624 4.877l1.398 5.034-5.179.694a4 4 0 0 0-3.452 4.329l.476 5.203-5.219-.242a4 4 0 0 0-4.17 3.643l-.46 5.204-5.092-1.17a4 4 0 0 0-4.754 2.84l-1.382 5.038-4.801-2.06a4 4 0 0 0-5.185 1.945l-2.26 4.711-4.355-2.885a4 4 0 0 0-5.448.989l-3.065 4.232-3.771-3.617a4 4 0 0 0-5.538 0l-3.771 3.617-3.064-4.232a4 4 0 0 0-5.28-1.095l-.169.106-4.355 2.885-2.26-4.711a4 4 0 0 0-5.184-1.945l-4.802 2.06-1.382-5.038a4 4 0 0 0-4.754-2.84l-5.092 1.17-.46-5.204a4 4 0 0 0-4.17-3.643l-5.22.242.477-5.203a4 4 0 0 0-3.452-4.329l-5.179-.694 1.398-5.034a4 4 0 0 0-2.624-4.877l-4.972-1.606 2.274-4.704a4 4 0 0 0-1.71-5.267l-4.606-2.468 3.078-4.222a4 4 0 0 0-.743-5.488l-4.09-3.25 3.782-3.606a4 4 0 0 0 .248-5.531l-3.444-3.93 4.365-2.871a4 4 0 0 0 1.233-5.4l-2.687-4.48 4.808-2.046a4 4 0 0 0 2.176-5.093l-1.843-4.888 5.095-1.155a4 4 0 0 0 3.05-4.62l-.94-5.14 5.22-.227a4 4 0 0 0 3.827-4.002L28 21.06l5.177.71a4 4 0 0 0 4.48-3.255l.925-5.143 4.966 1.622a4 4 0 0 0 4.99-2.402l1.827-4.895 4.598 2.484A4 4 0 0 0 60.3 8.707l2.673-4.49 4.08 3.264a4 4 0 0 0 5.514-.496L76 3.045z"/><circle cx="75.5" cy="75.5" r="60" stroke="#f0f3ff"/><path fill="#fff" d="M79.978 29.82a3.2 3.2 0 0 1-1.28-.348 3.1 3.1 0 0 1-.967-.798 2.9 2.9 0 0 1-.546-1.1l1.026-.35q.222.706.716 1.11t1.172.452a1.9 1.9 0 0 0 .706-.072q.309-.11.484-.328a.87.87 0 0 0 .206-.517q.028-.409-.186-.665-.213-.255-.652-.425l-1.367-.534q-.82-.317-1.223-.876a1.94 1.94 0 0 1-.353-1.287q.043-.629.384-1.076.342-.457.9-.69.567-.232 1.265-.185.669.045 1.2.323.534.267.895.703.371.436.514.987l-1.007.362a1.84 1.84 0 0 0-.627-.955 1.83 1.83 0 0 0-1.045-.392 1.5 1.5 0 0 0-.658.085 1 1 0 0 0-.463.33.97.97 0 0 0-.187.528.98.98 0 0 0 .186.654q.21.295.67.467l1.269.498q.87.33 1.284.87.415.528.363 1.277-.042.618-.404 1.075a2.2 2.2 0 0 1-.94.697q-.587.231-1.335.18m7.2 1.138a3.7 3.7 0 0 1-1.37-.605 3.7 3.7 0 0 1-.966-1.037 3.8 3.8 0 0 1-.483-1.36 4.1 4.1 0 0 1 .065-1.564q.181-.81.599-1.433.429-.63 1.029-1.02.601-.396 1.316-.523a3.7 3.7 0 0 1 1.498.04 3.5 3.5 0 0 1 1.317.573q.555.402.878.925.325.515.399 1.053l-1.144.255a2.1 2.1 0 0 0-.539-1.115q-.423-.485-1.145-.647a2.45 2.45 0 0 0-1.355.054 2.4 2.4 0 0 0-1.082.75q-.438.538-.62 1.347-.183.81-.018 1.493.176.674.655 1.142.481.456 1.204.619.721.162 1.31-.085.598-.245.964-.777l.925.72a2.7 2.7 0 0 1-.812.781 3.3 3.3 0 0 1-1.19.46 3.5 3.5 0 0 1-1.434-.046m4.177.949 2.828-6.892 1.091.447-1.245 3.035 3.192 1.31 1.245-3.035 1.083.444-2.829 6.893-1.082-.445 1.184-2.886-3.191-1.31-1.185 2.887zm6.736 2.884 3.79-6.414 4.227 2.498-.534.904-3.211-1.898-1.089 1.843 3.039 1.795-.534.904-3.039-1.795-1.099 1.86 3.211 1.897-.534.904zm5.101 3.146 4.697-5.783 1.894 1.539q.9.73 1.264 1.632.376.9.213 1.847-.165.95-.865 1.81-.694.854-1.594 1.218a3.3 3.3 0 0 1-1.858.178q-.957-.171-1.857-.902zm1.578-.07.994.806q.612.498 1.271.608.666.116 1.293-.148.626-.265 1.143-.901t.633-1.303a2.3 2.3 0 0 0-.112-1.289q-.243-.622-.856-1.12l-.993-.807zm5.862 6.98q-.555-.617-.729-1.334a2.64 2.64 0 0 1 .038-1.393q.213-.676.793-1.197l3.623-3.256.788.878-3.585 3.222a1.8 1.8 0 0 0-.506.738 1.57 1.57 0 0 0-.045.833q.098.423.426.787.334.372.738.507.41.143.833.044.43-.09.794-.418l3.585-3.222.782.87-3.622 3.256a2.7 2.7 0 0 1-1.275.661 2.55 2.55 0 0 1-1.389-.11q-.688-.241-1.249-.866m2.895 3.198 6.166-4.181.662.977-5.297 3.592 1.807 2.665-.869.589zm2.941 4.507 6.637-3.384 2.23 4.375-.936.477-1.694-3.323-1.906.972 1.603 3.144-.935.477-1.604-3.145-1.924.982 1.694 3.323-.935.477zm4.09 10.39a3.7 3.7 0 0 1-.13-1.493 3.7 3.7 0 0 1 .443-1.347q.364-.615.958-1.078.595-.465 1.402-.697a4.2 4.2 0 0 1 1.545-.166q.76.07 1.388.41.64.336 1.094.901.465.564.687 1.332.22.758.133 1.43a3.3 3.3 0 0 1-.388 1.215q-.293.532-.73.857l-.775-.88q.51-.396.717-1.009.22-.605.015-1.316a2.45 2.45 0 0 0-.7-1.16 2.4 2.4 0 0 0-1.179-.586q-.682-.126-1.479.105t-1.316.704q-.507.48-.685 1.124a2.5 2.5 0 0 0 .038 1.353q.206.71.705 1.108.502.405 1.146.47l-.186 1.157a2.7 2.7 0 0 1-1.075-.335 3.3 3.3 0 0 1-.977-.82 3.5 3.5 0 0 1-.651-1.28m1.412 7.73a3.9 3.9 0 0 1 .138-1.531q.22-.716.685-1.295.466-.57 1.132-.937a4 4 0 0 1 1.494-.441 4 4 0 0 1 1.551.136q.736.228 1.296.695.569.465.917 1.134.358.667.439 1.474a3.9 3.9 0 0 1-.138 1.531 3.6 3.6 0 0 1-.675 1.294q-.465.579-1.132.937a4 4 0 0 1-1.494.44 3.8 3.8 0 0 1-1.552-.145 3.72 3.72 0 0 1-2.222-1.818 3.9 3.9 0 0 1-.439-1.474m1.075-.107q.057.578.314 1.034.258.465.662.788.414.32.931.47a3 3 0 0 0 1.115.089q.587-.06 1.065-.308.477-.248.819-.645.343-.396.503-.904.161-.498.103-1.076a2.7 2.7 0 0 0-.315-1.044 2.6 2.6 0 0 0-.671-.777 2.8 2.8 0 0 0-.931-.47 3 3 0 0 0-1.104-.08q-.587.06-1.075.299-.478.248-.82.645a2.6 2.6 0 0 0-.493.903 2.7 2.7 0 0 0-.103 1.076m-.578 5.217 7.429.56-.071.948-6.068 3.734-.036-.454 5.824.44-.088 1.166-7.429-.56.071-.948 6.106-3.701.047.435-5.873-.443zm-1.374 9.863q.158-.683.546-1.209a3.1 3.1 0 0 1 .941-.83 2.9 2.9 0 0 1 1.172-.365l.184 1.069q-.732.108-1.21.531a2 2 0 0 0-.63 1.086q-.09.39-.041.71.06.321.247.528a.87.87 0 0 0 .479.285q.399.093.685-.078.285-.17.523-.577l.743-1.265q.443-.76 1.058-1.07a1.94 1.94 0 0 1 1.327-.145q.614.14 1.002.55.398.41.539.996.14.597-.018 1.279-.15.652-.508 1.135-.348.483-.835.772a2.45 2.45 0 0 1-1.056.351l-.198-1.051a1.84 1.84 0 0 0 1.041-.468 1.83 1.83 0 0 0 .553-.97q.083-.362.019-.663a1 1 0 0 0-.252-.51.96.96 0 0 0-.492-.268.98.98 0 0 0-.675.08q-.326.162-.567.588l-.692 1.175q-.463.806-1.061 1.13-.588.327-1.319.157a1.9 1.9 0 0 1-.998-.568 2.2 2.2 0 0 1-.54-1.038q-.135-.617.033-1.347m-1.999 6.303q.306-.771.87-1.247.561-.466 1.265-.586a2.7 2.7 0 0 1 1.425.176l4.528 1.792-.434 1.098-4.482-1.774a1.8 1.8 0 0 0-.886-.125q-.435.065-.766.332a1.76 1.76 0 0 0-.515.731q-.185.465-.125.887.055.43.331.765.272.345.728.525l4.482 1.774-.43 1.087-4.529-1.791a2.7 2.7 0 0 1-1.16-.847 2.55 2.55 0 0 1-.521-1.292q-.09-.724.219-1.505m-1.57 4.02 6.508 3.626-.575 1.031-5.59-3.116-1.567 2.813-.918-.511zm-3.16 5.223 5.235 3.681 1.139-1.62.859.604-2.934 4.172-.859-.604 1.122-1.595-5.235-3.681zm-1.645 2.315 3.772 6.939-.979 1.083-7.284-3.05.844-.935 1.622.697 2.031-2.249-.851-1.55zm.557 3.441-1.562 1.729 3.779 1.635-.221.245zm-6.372 2.602 4.168 4.857 1.502-1.29.684.797-3.87 3.322-.684-.797 1.48-1.27-4.168-4.857zm-3.076 2.552 4.344 6.053-.959.688-4.344-6.053zm-5.507 3.12a3.9 3.9 0 0 1 1.466-.462 3.9 3.9 0 0 1 1.459.133q.704.21 1.301.683.588.478.982 1.209.395.73.472 1.484.073.767-.141 1.463a3.6 3.6 0 0 1-.694 1.283 3.9 3.9 0 0 1-1.19.973q-.721.39-1.467.463a3.6 3.6 0 0 1-1.453-.124 3.6 3.6 0 0 1-1.302-.684 4 4 0 0 1-.982-1.208 3.8 3.8 0 0 1-.463-1.489 3.72 3.72 0 0 1 .821-2.751 3.9 3.9 0 0 1 1.19-.973m.513.95a2.62 2.62 0 0 0-1.305 1.603q-.135.506-.074 1.041.066.543.347 1.063t.694.864.91.508a2.5 2.5 0 0 0 1.029.115 2.6 2.6 0 0 0 1.032-.319q.51-.276.842-.693.323-.414.458-.919a2.8 2.8 0 0 0 .075-1.04 3 3 0 0 0-.351-1.05 3.1 3.1 0 0 0-.69-.877 2.8 2.8 0 0 0-.911-.508 2.6 2.6 0 0 0-1.023-.107 2.7 2.7 0 0 0-1.033.319m-5.038 1.475 2.314 7.081-.903.295-5.765-4.185.406-.207 1.814 5.551-1.112.364-2.315-7.081.903-.296 5.75 4.233-.384.21-1.83-5.598zm-10.989 3.593q.556-.072 1.024.12.47.2.784.604.316.402.388.968a1.82 1.82 0 0 1-.732 1.739 1.94 1.94 0 0 1-.968.387 1.8 1.8 0 0 1-.986-.134q-.449-.194-.752-.588a2.01 2.01 0 0 1-.262-1.943q.192-.468.585-.781.394-.303.92-.372m-8.237-.558q.7.031 1.288.317.587.297.987.774t.572 1.087l-1.017.375q-.24-.7-.743-1.094a2.02 2.02 0 0 0-1.182-.422 1.9 1.9 0 0 0-.705.089 1.06 1.06 0 0 0-.475.339.87.87 0 0 0-.194.522q-.018.41.202.66t.662.409l1.38.502q.827.296 1.243.845.417.56.384 1.279a1.95 1.95 0 0 1-.358 1.085q-.33.466-.882.712a2.8 2.8 0 0 1-1.26.214 3 3 0 0 1-1.209-.293 2.75 2.75 0 0 1-.91-.681 2.46 2.46 0 0 1-.538-.975l.998-.386q.193.599.649.939.445.34 1.055.367.37.016.655-.101a1 1 0 0 0 .455-.34.97.97 0 0 0 .174-.533.98.98 0 0 0-.202-.65q-.218-.29-.68-.45l-1.281-.467q-.877-.309-1.305-.838-.427-.519-.394-1.269.027-.62.378-1.084.341-.467.923-.72.582-.245 1.33-.212m-7.221-.976a3.7 3.7 0 0 1 1.383.576q.598.417.987 1.017.377.606.512 1.348a4.1 4.1 0 0 1-.031 1.565q-.165.813-.569 1.446a3.6 3.6 0 0 1-1.007 1.041q-.592.41-1.305.551a3.7 3.7 0 0 1-1.499-.008 3.5 3.5 0 0 1-1.328-.545 3.3 3.3 0 0 1-.898-.906 2.6 2.6 0 0 1-.42-1.045l1.138-.279q.115.636.562 1.104.433.476 1.159.623.725.147 1.353-.083a2.4 2.4 0 0 0 1.065-.774q.427-.546.592-1.359.165-.814-.013-1.493a2.4 2.4 0 0 0-.68-1.127 2.5 2.5 0 0 0-1.216-.594q-.726-.147-1.308.112a2.1 2.1 0 0 0-.948.798l-.94-.701q.286-.451.795-.798a3.3 3.3 0 0 1 1.18-.485q.661-.141 1.436.016m-4.196-.858-2.659 6.96-1.102-.421 1.17-3.064-3.222-1.232-1.171 3.064-1.093-.417 2.659-6.96 1.093.418-1.114 2.914 3.223 1.232 1.114-2.915zm-6.804-2.722-3.665 6.486-4.275-2.416.517-.914 3.247 1.835 1.053-1.863-3.073-1.737.517-.914 3.073 1.737 1.063-1.88-3.248-1.836.517-.914zm-5.163-3.045-4.556 5.895-1.93-1.492q-.919-.71-1.303-1.602a3.24 3.24 0 0 1-.258-1.841q.142-.952.821-1.831.672-.87 1.564-1.255a3.3 3.3 0 0 1 1.854-.223q.96.147 1.878.857zm-1.576.109-1.012-.782q-.626-.483-1.286-.577a2.26 2.26 0 0 0-1.289.179q-.62.279-1.122.928-.501.65-.6 1.317-.115.67.143 1.287.256.615.882 1.099l1.013.782zm-6.018-6.847q.568.606.756 1.32.182.707-.01 1.394a2.7 2.7 0 0 1-.77 1.212l-3.554 3.328-.807-.861 3.519-3.294a1.8 1.8 0 0 0 .492-.748q.127-.42.027-.834-.106-.42-.441-.779a1.73 1.73 0 0 0-.748-.491 1.5 1.5 0 0 0-.834-.028 1.7 1.7 0 0 0-.785.434l-3.52 3.294-.799-.854 3.556-3.328q.57-.533 1.26-.687t1.392.081q.692.228 1.266.841m-2.96-3.138-6.074 4.314-.683-.962 5.218-3.706-1.865-2.625.856-.608zm-3.038-4.443-6.565 3.522-2.32-4.326.924-.497 1.764 3.287 1.886-1.012-1.67-3.11.926-.497 1.669 3.111 1.903-1.021-1.763-3.287.925-.496zm-4.319-10.295q.235.755.162 1.49-.078.726-.415 1.355a3.8 3.8 0 0 1-.935 1.1 4.1 4.1 0 0 1-1.387.726 4.2 4.2 0 0 1-1.54.198 3.6 3.6 0 0 1-1.398-.38 3.5 3.5 0 0 1-1.112-.879 3.7 3.7 0 0 1-.715-1.317 3.5 3.5 0 0 1-.163-1.426q.07-.681.362-1.224.282-.539.712-.871l.794.862a2.1 2.1 0 0 0-.697 1.024q-.207.61.013 1.316t.725 1.146 1.191.56q.684.113 1.477-.136.793-.248 1.3-.731.498-.49.661-1.139.155-.644-.066-1.352-.22-.705-.729-1.092a2.1 2.1 0 0 0-1.155-.446l.161-1.16q.534.032 1.082.311.549.28.994.8a3.5 3.5 0 0 1 .678 1.265M31.7 80.767q.098.804-.106 1.534-.204.72-.656 1.309a3.9 3.9 0 0 1-1.112.961q-.66.373-1.484.473a4 4 0 0 1-1.554-.103 3.7 3.7 0 0 1-2.252-1.78 3.9 3.9 0 0 1-.47-1.465 3.9 3.9 0 0 1 .105-1.534q.194-.729.647-1.307a3.65 3.65 0 0 1 1.112-.962q.66-.373 1.484-.472a3.8 3.8 0 0 1 1.555.112 3.7 3.7 0 0 1 1.309.657q.579.453.951 1.113.374.66.47 1.464m-1.072.13a2.6 2.6 0 0 0-.337-1.026 2.6 2.6 0 0 0-.678-.774 2.8 2.8 0 0 0-.941-.45 3 3 0 0 0-1.117-.065q-.585.071-1.057.33a2.8 2.8 0 0 0-.806.662 2.5 2.5 0 0 0-.483.915q-.15.502-.08 1.078t.337 1.037q.267.45.687.762t.941.45q.52.127 1.105.057.585-.072 1.07-.322.471-.258.805-.662.324-.402.473-.914.15-.511.08-1.077m.465-5.226-7.44-.397.051-.949 5.985-3.867.046.454-5.832-.312.062-1.168 7.44.397-.05.949-6.024 3.834-.057-.433 5.882.313zm1.158-9.89a3.2 3.2 0 0 1-.52 1.22 3.1 3.1 0 0 1-.922.85 2.9 2.9 0 0 1-1.164.392l-.207-1.064q.73-.124 1.198-.558t.607-1.1q.08-.39.025-.71a1.05 1.05 0 0 0-.26-.523.87.87 0 0 0-.484-.274q-.4-.084-.683.093-.282.176-.51.588l-.716 1.281q-.425.77-1.034 1.093a1.94 1.94 0 0 1-1.323.174 1.95 1.95 0 0 1-1.014-.527 2.1 2.1 0 0 1-.561-.985 2.8 2.8 0 0 1-.01-1.279q.136-.656.483-1.146.337-.49.818-.79.483-.308 1.048-.374l.222 1.047a1.84 1.84 0 0 0-1.032.49 1.83 1.83 0 0 0-.53.983 1.5 1.5 0 0 0-.006.662q.06.3.263.505.195.193.498.256a.98.98 0 0 0 .674-.095q.32-.168.553-.6l.666-1.189q.446-.816 1.037-1.153.581-.339 1.315-.187.607.127 1.01.547.404.412.563 1.026.149.614-.004 1.348m1.857-6.344q-.287.778-.841 1.266-.55.48-1.25.615-.697.126-1.43-.144l-4.567-1.689.409-1.107 4.521 1.672q.46.17.889.104.431-.075.758-.349.329-.284.498-.743.173-.469.105-.889a1.5 1.5 0 0 0-.349-.758 1.7 1.7 0 0 0-.74-.508l-4.52-1.67.405-1.098 4.568 1.688q.731.27 1.179.82t.55 1.28q.107.721-.185 1.51m1.477-4.054-6.593-3.468.55-1.044 5.663 2.979 1.5-2.85.929.489zm3.035-5.297-5.32-3.558-1.1 1.645-.873-.583 2.835-4.24.873.584-1.084 1.621 5.32 3.559zm1.59-2.354-3.922-6.853.954-1.105 7.35 2.89-.824.953-1.636-.661-1.981 2.292.884 1.531zm-.632-3.428 1.524-1.762-3.814-1.552.216-.25zm6.32-2.737-4.259-4.778-1.478 1.318-.699-.784 3.807-3.393.699.783-1.456 1.298 4.26 4.777zm3.026-2.61-4.466-5.963.944-.707 4.467 5.962zm5.44-3.238q-.705.4-1.456.495-.744.089-1.461-.101a3.9 3.9 0 0 1-1.316-.655 4 4 0 0 1-1.009-1.187 4 4 0 0 1-.504-1.474 3.7 3.7 0 0 1 .775-2.764q.465-.598 1.17-.998.712-.405 1.455-.495a3.6 3.6 0 0 1 1.456.093q.719.19 1.316.655t1.009 1.187q.41.72.495 1.478.094.752-.101 1.46a3.7 3.7 0 0 1-.66 1.308q-.465.598-1.17.999m-.534-.938q.504-.287.817-.707.322-.425.453-.924.124-.508.051-1.042a3 3 0 0 0-.37-1.055 2.9 2.9 0 0 0-.712-.849 2.8 2.8 0 0 0-.922-.488 2.5 2.5 0 0 0-1.03-.093q-.522.055-1.026.342a2.7 2.7 0 0 0-.826.711q-.313.42-.439.928-.124.509-.051 1.042.081.529.373 1.042.291.512.71.862.42.336.92.488.497.144 1.026.084.53-.06 1.026-.341m5.002-1.585-2.49-7.022.896-.317 5.868 4.04-.4.217-1.952-5.504 1.102-.391 2.49 7.022-.895.317-5.853-4.089.378-.219 1.969 5.551zm10.904-3.839q-.555.085-1.027-.096a1.96 1.96 0 0 1-.797-.586 1.95 1.95 0 0 1-.41-.96 1.82 1.82 0 0 1 .693-1.754q.396-.324.96-.41.532-.082.987.113.453.183.765.57.313.389.401.9.086.564-.095 1.037-.18.473-.566.794a1.9 1.9 0 0 1-.911.392"/><path fill="#f0f3ff" d="M44 76c0-17.673 14.327-32 32-32s32 14.327 32 32-14.327 32-32 32-32-14.327-32-32"/><path fill="url(#b)" d="M82.11 72.91 68.29 86.726q-.4.4-.908.382-.51-.018-.91-.418a1.27 1.27 0 0 1 0-1.855l13.783-13.781h-6.437a1.27 1.27 0 0 1-.933-.375 1.26 1.26 0 0 1-.376-.927q0-.553.376-.935.377-.382.933-.382h9.6q.556 0 .933.377.376.376.376.933v9.6q0 .555-.374.932t-.927.377-.935-.377a1.26 1.26 0 0 1-.382-.933z"/><defs><linearGradient id="a" x1="76" x2="-14.794" y1="-52.615" y2="139.864" gradientUnits="userSpaceOnUse"><stop stop-color="#1d1ded"/><stop offset="1" stop-color="#1d9aed"/></linearGradient><linearGradient id="b" x1="75.4" x2="64.239" y1="61.972" y2="85.61" gradientUnits="userSpaceOnUse"><stop stop-color="#1d1ded"/><stop offset="1" stop-color="#1d9aed"/></linearGradient></defs></svg>