<svg width="48" height="48" viewBox="0 0 48 48" fill="none" xmlns="http://www.w3.org/2000/svg">
<g clip-path="url(#clip0_8085_81119)">
<path d="M44.625 35.25V20.25C44.625 17.1484 42.1016 14.625 39 14.625C35.8984 14.625 33.375 17.1484 33.375 20.25V35.25C33.375 38.3516 35.8984 40.875 39 40.875C42.1016 40.875 44.625 38.3516 44.625 35.25ZM37.125 35.25V20.25C37.125 19.2161 37.9661 18.375 39 18.375C40.0339 18.375 40.875 19.2161 40.875 20.25V35.25C40.875 36.2839 40.0339 37.125 39 37.125C37.9661 37.125 37.125 36.2839 37.125 35.25Z" fill="#02131F"/>
<path d="M3.375 35.25C3.375 38.3516 5.89838 40.875 9 40.875C12.1016 40.875 14.625 38.3516 14.625 35.25C14.625 32.1484 12.1016 29.625 9 29.625C5.89838 29.625 3.375 32.1484 3.375 35.25ZM10.875 35.25C10.875 36.2839 10.0339 37.125 9 37.125C7.96613 37.125 7.125 36.2839 7.125 35.25C7.125 34.2161 7.96613 33.375 9 33.375C10.0339 33.375 10.875 34.2161 10.875 35.25ZM18.375 27.75V35.25C18.375 38.3516 20.8984 40.875 24 40.875C27.1016 40.875 29.625 38.3516 29.625 35.25V27.75C29.625 24.6484 27.1016 22.125 24 22.125C20.8984 22.125 18.375 24.6484 18.375 27.75ZM25.875 27.75V35.25C25.875 36.2839 25.0339 37.125 24 37.125C22.9661 37.125 22.125 36.2839 22.125 35.25V27.75C22.125 26.7161 22.9661 25.875 24 25.875C25.0339 25.875 25.875 26.7161 25.875 27.75ZM46.125 44.25H1.875C0.839438 44.25 0 45.0894 0 46.125C0 47.1606 0.839438 48 1.875 48H46.125C47.1606 48 48 47.1606 48 46.125C48 45.0894 47.1606 44.25 46.125 44.25ZM24.5491 11.0226L24.2275 10.701C23.1651 9.63853 21.7525 9.05334 20.25 9.05334C18.7477 9.05334 17.3349 9.63853 16.2726 10.7009L3.92419 23.0492C3.19191 23.7815 3.19191 24.9686 3.92419 25.7008C4.65637 26.433 5.84353 26.4331 6.57581 25.7008L18.9241 13.3525C19.0978 13.1779 19.3044 13.0394 19.532 12.9451C19.7596 12.8509 20.0037 12.8027 20.25 12.8033C20.4963 12.8027 20.7403 12.8509 20.9679 12.9452C21.1955 13.0394 21.4021 13.1779 21.5758 13.3525L21.8975 13.6742C24.0907 15.8675 27.6593 15.8675 29.8524 13.6742L37.125 6.40162V9.375C37.125 10.4106 37.9644 11.25 39 11.25C40.0356 11.25 40.875 10.4106 40.875 9.375V5.625C40.875 2.529 38.3522 0 35.25 0H31.5C30.4644 0 29.625 0.839438 29.625 1.875C29.625 2.91056 30.4644 3.75 31.5 3.75H34.4734L27.2008 11.0226C26.4697 11.7536 25.2802 11.7536 24.5491 11.0226Z" fill="#02131F"/>
</g>
<defs>
<clipPath id="clip0_8085_81119">
<rect width="48" height="48" fill="white"/>
</clipPath>
</defs>
</svg>
