<svg width="48" height="48" viewBox="0 0 48 48" fill="none" xmlns="http://www.w3.org/2000/svg">
<g clip-path="url(#clip0_8085_81047)">
<path d="M14.7353 14.0415C14.7353 15.7471 13.3526 17.1297 11.6471 17.1297H8.94525M14.7353 33.9588C14.7353 32.2532 13.3526 30.8705 11.6471 30.8705H8.94525M17.8235 27.5661V20.4342L24 16.8682L30.1765 20.4342V27.5661L24 31.1321L17.8235 27.5661Z" stroke="#02131F" stroke-width="3.08824" stroke-miterlimit="10" stroke-linecap="round" stroke-linejoin="round"/>
<path d="M24 37.5881C24 40.1465 26.074 42.2205 28.6324 42.2205C30.6565 42.2205 32.3594 40.9138 32.9897 39.1045C33.0828 39.1087 33.1704 39.1322 33.2647 39.1322C36.6758 39.1322 39.4412 36.3669 39.4412 32.9558C39.4412 32.2201 39.2908 31.5245 39.0548 30.8703C41.1575 29.1718 42.2206 26.9134 42.2206 23.9999C42.2206 21.0864 41.1575 18.8279 39.0548 17.1295C39.2908 16.4752 39.4412 15.7795 39.4412 15.044C39.4412 11.6327 36.6758 8.86753 33.2647 8.86753C33.1704 8.86753 33.0828 8.89108 32.9897 8.89525C32.3594 7.08593 30.6565 5.7793 28.6324 5.7793C26.074 5.7793 24 7.85328 24 10.4116C24 7.85328 21.926 5.7793 19.3677 5.7793C17.3435 5.7793 15.6406 7.08593 15.0103 8.89525C14.9172 8.89108 14.8296 8.86753 14.7353 8.86753C11.3242 8.86753 8.55883 11.6327 8.55883 15.044C8.55883 15.7795 8.70923 16.4752 8.94525 17.1295C6.84247 18.8279 5.77942 21.0864 5.77942 23.9999C5.77942 26.9134 6.84247 29.1718 8.94525 30.8703C8.70923 31.5245 8.55883 32.2201 8.55883 32.9558C8.55883 36.3669 11.3242 39.1322 14.7353 39.1322C14.8296 39.1322 14.9172 39.1087 15.0103 39.1045C15.6406 40.9138 17.3435 42.2205 19.3677 42.2205C21.926 42.2205 24 40.1465 24 37.5881Z" stroke="#02131F" stroke-width="3.08824" stroke-miterlimit="10" stroke-linecap="round" stroke-linejoin="round"/>
<path d="M33.2647 14.0415C33.2647 15.7471 34.6474 17.1297 36.3529 17.1297H39.0548M33.2647 33.9588C33.2647 32.2532 34.6474 30.8705 36.3529 30.8705H39.0548" stroke="#02131F" stroke-width="3.08824" stroke-miterlimit="10" stroke-linecap="round" stroke-linejoin="round"/>
</g>
<defs>
<clipPath id="clip0_8085_81047">
<rect width="39.5294" height="39.5294" fill="white" transform="translate(4.23529 4.23535)"/>
</clipPath>
</defs>
</svg>
