<svg width="38" height="38" viewBox="0 0 38 38" fill="none" xmlns="http://www.w3.org/2000/svg">
<g clip-path="url(#clip0_8109_81356)">
<path d="M33.6953 14.9922L35.6464 16.8819C36.8053 18.0372 36.8053 19.9105 35.6464 21.0658L33.6953 23.0078" stroke="white" stroke-width="2.96874" stroke-miterlimit="10" stroke-linecap="round" stroke-linejoin="round"/>
<path d="M4.23045 14.9922L2.35354 16.8819C1.19461 18.0372 1.19461 19.9105 2.35354 21.0658L4.23045 23.0078" stroke="white" stroke-width="2.96874" stroke-miterlimit="10" stroke-linecap="round" stroke-linejoin="round"/>
<path d="M14.9922 4.30469L16.8818 2.35356C18.0372 1.19463 19.9104 1.19463 21.0658 2.35356L22.9335 4.30469" stroke="white" stroke-width="2.96874" stroke-miterlimit="10" stroke-linecap="round" stroke-linejoin="round"/>
<path d="M14.9922 33.6954L16.8818 35.6465C18.0372 36.8053 19.9104 36.8053 21.0658 35.6465L22.9335 33.6954" stroke="white" stroke-width="2.96874" stroke-miterlimit="10" stroke-linecap="round" stroke-linejoin="round"/>
<path d="M27.3124 5.19533H29.8461C31.4825 5.19281 32.8071 6.51738 32.8045 8.15383L32.7981 10.8359" stroke="white" stroke-width="2.96874" stroke-miterlimit="10" stroke-linecap="round" stroke-linejoin="round"/>
<path d="M10.6875 5.19533H8.15378C6.51734 5.19281 5.19276 6.51738 5.19529 8.15383L5.20174 10.8359" stroke="white" stroke-width="2.96874" stroke-miterlimit="10" stroke-linecap="round" stroke-linejoin="round"/>
<path d="M27.2382 32.8047H29.8461C31.4825 32.8071 32.8071 31.4826 32.8045 29.8462L32.7981 27.1641" stroke="white" stroke-width="2.96874" stroke-miterlimit="10" stroke-linecap="round" stroke-linejoin="round"/>
<path d="M10.8359 32.7305H8.228C6.59156 32.7329 5.26698 31.4084 5.2695 29.772L5.27596 27.0156" stroke="white" stroke-width="2.96874" stroke-miterlimit="10" stroke-linecap="round" stroke-linejoin="round"/>
<path d="M12.0976 12.0977L10.2422 10.3164" stroke="white" stroke-width="2.96874" stroke-miterlimit="10" stroke-linecap="round" stroke-linejoin="round"/>
<path d="M25.9023 25.9023L27.7577 27.6836" stroke="white" stroke-width="2.96874" stroke-miterlimit="10" stroke-linecap="round" stroke-linejoin="round"/>
<path d="M25.9023 12.0977L27.7577 10.3164" stroke="white" stroke-width="2.96874" stroke-miterlimit="10" stroke-linecap="round" stroke-linejoin="round"/>
<path d="M12.0976 25.9023L10.3164 27.6094" stroke="white" stroke-width="2.96874" stroke-miterlimit="10" stroke-linecap="round" stroke-linejoin="round"/>
<path d="M19 9.42578V7.42188" stroke="white" stroke-width="2.96874" stroke-miterlimit="10" stroke-linecap="round" stroke-linejoin="round"/>
<path d="M19 30.875V28.8711" stroke="white" stroke-width="2.96874" stroke-miterlimit="10" stroke-linecap="round" stroke-linejoin="round"/>
<path d="M9.27731 19.1484H7.27341" stroke="white" stroke-width="2.96874" stroke-miterlimit="10" stroke-linecap="round" stroke-linejoin="round"/>
<path d="M30.7264 19.1484H28.7225" stroke="white" stroke-width="2.96874" stroke-miterlimit="10" stroke-linecap="round" stroke-linejoin="round"/>
<path d="M14.9179 19C14.9179 21.2545 16.7456 23.082 19 23.082C21.2543 23.082 23.082 21.2545 23.082 19C23.082 16.7456 21.2543 14.918 19 14.918C16.7456 14.918 14.9179 16.7456 14.9179 19Z" stroke="white" stroke-width="2.96874" stroke-miterlimit="10" stroke-linecap="round" stroke-linejoin="round"/>
</g>
<defs>
<clipPath id="clip0_8109_81356">
<rect width="38" height="38" fill="white"/>
</clipPath>
</defs>
</svg>
