<svg width="38" height="38" viewBox="0 0 38 38" fill="none" xmlns="http://www.w3.org/2000/svg">
<path d="M19 19C20.6396 19 21.9688 17.6708 21.9688 16.0312C21.9688 14.3917 20.6396 13.0625 19 13.0625C17.3604 13.0625 16.0312 14.3917 16.0312 16.0312C16.0312 17.6708 17.3604 19 19 19Z" stroke="white" stroke-width="2.96875" stroke-miterlimit="10" stroke-linecap="round" stroke-linejoin="round"/>
<path d="M13.0625 24.9375C13.0625 24.9375 14.5469 21.9688 19 21.9688C23.4531 21.9688 24.9375 24.9375 24.9375 24.9375" stroke="white" stroke-width="2.96875" stroke-miterlimit="10" stroke-linecap="round" stroke-linejoin="round"/>
<path d="M14.5469 30.5781H23.4531M14.5469 1.48438V4.45312C14.5469 6.09269 15.8761 7.42188 17.5156 7.42188H20.4844C22.1239 7.42188 23.4531 6.09269 23.4531 4.45312V1.48438" stroke="white" stroke-width="2.96875" stroke-miterlimit="10" stroke-linecap="round" stroke-linejoin="round"/>
<path d="M14.5469 4.45312H8.60938C6.96981 4.45312 5.64062 5.78231 5.64062 7.42188V33.5469C5.64062 35.1864 6.96981 36.5156 8.60938 36.5156H29.3906C31.0302 36.5156 32.3594 35.1864 32.3594 33.5469V7.42188C32.3594 5.78231 31.0302 4.45312 29.3906 4.45312" stroke="white" stroke-width="2.96875" stroke-miterlimit="10" stroke-linecap="round" stroke-linejoin="round"/>
</svg>
