<svg width="38" height="38" viewBox="0 0 38 38" fill="none" xmlns="http://www.w3.org/2000/svg">
<g clip-path="url(#clip0_8109_81351)">
<mask id="path-1-inside-1_8109_81351" fill="white">
<path d="M1.48438 13.3594C0.664555 13.3594 0 12.6948 0 11.875V8.90625C0 3.99534 3.99534 0 8.90625 0H11.875C12.6948 0 13.3594 0.664555 13.3594 1.48438C13.3594 2.3042 12.6948 2.96875 11.875 2.96875H8.90625C5.63231 2.96875 2.96875 5.63231 2.96875 8.90625V11.875C2.96875 12.6948 2.3042 13.3594 1.48438 13.3594ZM38 11.875V8.90625C38 3.99534 34.0047 0 29.0938 0H26.125C24.1602 0.0724375 24.1564 2.89498 26.125 2.96875H29.0938C32.3677 2.96875 35.0312 5.63231 35.0312 8.90625V11.875C35.1013 13.8376 37.9267 13.845 38 11.875ZM38 29.0938V26.125C38 25.3052 37.3354 24.6406 36.5156 24.6406C35.6958 24.6406 35.0312 25.3052 35.0312 26.125V29.0938C35.0312 32.3677 32.3677 35.0312 29.0938 35.0312H26.125C24.1624 35.1013 24.155 37.9267 26.125 38H29.0938C34.0047 38 38 34.0047 38 29.0938ZM13.3594 36.5156C13.3594 35.6958 12.6948 35.0312 11.875 35.0312H8.90625C5.63231 35.0312 2.96875 32.3677 2.96875 29.0938V26.125C2.96875 25.3052 2.3042 24.6406 1.48438 24.6406C0.664555 24.6406 0 25.3052 0 26.125V29.0938C0 34.0047 3.99534 38 8.90625 38H11.875C12.6948 38 13.3594 37.3354 13.3594 36.5156Z"/>
</mask>
<path d="M38 11.875L40.9679 11.9855L40.97 11.9303V11.875H38ZM26.125 0V-2.97H26.0703L26.0156 -2.96798L26.125 0ZM26.125 2.96875L26.0138 5.93667L26.0694 5.93875H26.125V2.96875ZM35.0312 11.875H32.0612V11.928L32.0631 11.981L35.0312 11.875ZM26.125 35.0312V32.0612H26.072L26.019 32.0631L26.125 35.0312ZM26.125 38L26.0145 40.9679L26.0697 40.97H26.125V38ZM1.48438 13.3594V10.3894C2.30484 10.3894 2.97 11.0545 2.97 11.875H0H-2.97C-2.97 14.3351 -0.975731 16.3294 1.48438 16.3294V13.3594ZM0 11.875H2.97V8.90625H0H-2.97V11.875H0ZM0 8.90625H2.97C2.97 5.63563 5.63563 2.97 8.90625 2.97V0V-2.97C2.35506 -2.97 -2.97 2.35506 -2.97 8.90625H0ZM8.90625 0V2.97H11.875V0V-2.97H8.90625V0ZM11.875 0V2.97C11.0545 2.97 10.3894 2.30484 10.3894 1.48438H13.3594H16.3294C16.3294 -0.975731 14.3351 -2.97 11.875 -2.97V0ZM13.3594 1.48438H10.3894C10.3894 0.66391 11.0545 -0.00125003 11.875 -0.00125003V2.96875V5.93875C14.3351 5.93875 16.3294 3.94448 16.3294 1.48438H13.3594ZM11.875 2.96875V-0.00125003H8.90625V2.96875V5.93875H11.875V2.96875ZM8.90625 2.96875V-0.00125003C3.99203 -0.00125003 -0.00125003 3.99203 -0.00125003 8.90625H2.96875H5.93875C5.93875 7.2726 7.2726 5.93875 8.90625 5.93875V2.96875ZM2.96875 8.90625H-0.00125003V11.875H2.96875H5.93875V8.90625H2.96875ZM2.96875 11.875H-0.00125003C-0.00125003 11.0545 0.66391 10.3894 1.48438 10.3894V13.3594V16.3294C3.94448 16.3294 5.93875 14.3351 5.93875 11.875H2.96875ZM38 11.875H40.97V8.90625H38H35.03V11.875H38ZM38 8.90625H40.97C40.97 2.35506 35.6449 -2.97 29.0938 -2.97V0V2.97C32.3644 2.97 35.03 5.63563 35.03 8.90625H38ZM29.0938 0V-2.97H26.125V0V2.97H29.0938V0ZM26.125 0L26.0156 -2.96798C20.2752 -2.75635 20.195 5.71861 26.0138 5.93667L26.125 2.96875L26.2362 0.000833327C26.5026 0.0108162 26.9123 0.144889 27.2367 0.509273C27.5234 0.831375 27.6202 1.1945 27.62 1.48582C27.6198 1.77703 27.5226 2.139 27.2367 2.45992C26.913 2.82314 26.5034 2.95807 26.2344 2.96798L26.125 0ZM26.125 2.96875V5.93875H29.0938V2.96875V-0.00125003H26.125V2.96875ZM29.0938 2.96875V5.93875C30.7274 5.93875 32.0612 7.2726 32.0612 8.90625H35.0312H38.0013C38.0013 3.99203 34.008 -0.00125003 29.0938 -0.00125003V2.96875ZM35.0312 8.90625H32.0612V11.875H35.0312H38.0013V8.90625H35.0312ZM35.0312 11.875L32.0631 11.981C32.2674 17.7029 40.7505 17.8275 40.9679 11.9855L38 11.875L35.0321 11.7645C35.042 11.498 35.1762 11.0875 35.5415 10.7626C35.8643 10.4756 36.2277 10.3793 36.5182 10.3797C36.8085 10.3801 37.1699 10.477 37.4906 10.7629C37.8539 11.0867 37.9897 11.4975 37.9994 11.769L35.0312 11.875ZM38 29.0938H40.97V26.125H38H35.03V29.0938H38ZM38 26.125H40.97C40.97 23.6649 38.9757 21.6706 36.5156 21.6706V24.6406V27.6106C35.6952 27.6106 35.03 26.9455 35.03 26.125H38ZM36.5156 24.6406V21.6706C34.0555 21.6706 32.0612 23.6649 32.0612 26.125H35.0312H38.0013C38.0013 26.9455 37.3361 27.6106 36.5156 27.6106V24.6406ZM35.0312 26.125H32.0612V29.0938H35.0312H38.0013V26.125H35.0312ZM35.0312 29.0938H32.0612C32.0612 30.7274 30.7274 32.0612 29.0938 32.0612V35.0312V38.0013C34.008 38.0013 38.0013 34.008 38.0013 29.0938H35.0312ZM29.0938 35.0312V32.0612H26.125V35.0312V38.0013H29.0938V35.0312ZM26.125 35.0312L26.019 32.0631C20.2971 32.2674 20.1725 40.7505 26.0145 40.9679L26.125 38L26.2355 35.0321C26.502 35.042 26.9125 35.1762 27.2374 35.5415C27.5244 35.8643 27.6207 36.2277 27.6203 36.5182C27.6199 36.8085 27.523 37.1699 27.2371 37.4906C26.9133 37.8539 26.5025 37.9897 26.231 37.9994L26.125 35.0312ZM26.125 38V40.97H29.0938V38V35.03H26.125V38ZM29.0938 38V40.97C35.6449 40.97 40.97 35.6449 40.97 29.0938H38H35.03C35.03 32.3644 32.3644 35.03 29.0938 35.03V38ZM13.3594 36.5156H16.3294C16.3294 34.0555 14.3351 32.0612 11.875 32.0612V35.0312V38.0013C11.0545 38.0013 10.3894 37.3361 10.3894 36.5156H13.3594ZM11.875 35.0312V32.0612H8.90625V35.0312V38.0013H11.875V35.0312ZM8.90625 35.0312V32.0612C7.2726 32.0612 5.93875 30.7274 5.93875 29.0938H2.96875H-0.00125003C-0.00125003 34.008 3.99203 38.0013 8.90625 38.0013V35.0312ZM2.96875 29.0938H5.93875V26.125H2.96875H-0.00125003V29.0938H2.96875ZM2.96875 26.125H5.93875C5.93875 23.6649 3.94448 21.6706 1.48438 21.6706V24.6406V27.6106C0.66391 27.6106 -0.00125003 26.9455 -0.00125003 26.125H2.96875ZM1.48438 24.6406V21.6706C-0.975731 21.6706 -2.97 23.6649 -2.97 26.125H0H2.97C2.97 26.9455 2.30484 27.6106 1.48438 27.6106V24.6406ZM0 26.125H-2.97V29.0938H0H2.97V26.125H0ZM0 29.0938H-2.97C-2.97 35.6449 2.35506 40.97 8.90625 40.97V38V35.03C5.63563 35.03 2.97 32.3644 2.97 29.0938H0ZM8.90625 38V40.97H11.875V38V35.03H8.90625V38ZM11.875 38V40.97C14.3351 40.97 16.3294 38.9757 16.3294 36.5156H13.3594H10.3894C10.3894 35.6952 11.0545 35.03 11.875 35.03V38Z" fill="#1D9AED" mask="url(#path-1-inside-1_8109_81351)"/>
<path d="M21.5127 25.5098C20.7315 25.8091 19.885 25.9756 19 25.9756C18.1189 25.9756 17.2755 25.8115 16.4971 25.5146C18.1031 26.0842 19.9075 26.0819 21.5127 25.5098ZM11.9521 19.0449C11.9846 19.7734 12.0992 20.4436 12.2803 21.0566C12.0778 20.42 11.9638 19.7448 11.9521 19.0449ZM25.7393 20.9951C25.7341 21.0118 25.7279 21.0282 25.7227 21.0449C25.7276 21.0282 25.7344 21.012 25.7393 20.9951ZM26.0469 19.043C26.0359 19.7147 25.9314 20.3636 25.7441 20.9775C25.912 20.3856 26.016 19.7407 26.0469 19.043ZM15.2666 12.9463C14.274 13.5681 13.4474 14.43 12.8672 15.4502C13.4593 14.3645 14.2963 13.5294 15.2666 12.9463ZM22.7285 12.9434C23.7009 13.5266 24.5388 14.3628 25.1318 15.4502C24.5507 14.4285 23.7231 13.5653 22.7285 12.9434Z" stroke="#1D9AED" stroke-width="2.97"/>
</g>
<defs>
<clipPath id="clip0_8109_81351">
<rect width="38" height="38" fill="white"/>
</clipPath>
</defs>
</svg>
